<svg width="990" height="964" viewBox="0 0 990 964" fill="none" xmlns="http://www.w3.org/2000/svg" xmlns:xlink="http://www.w3.org/1999/xlink">
<g opacity="0.4">
<path d="M892,314C892,463.116 766.192,584 611,584C455.808,584 330,463.116 330,314C330,164.883 455.808,44 611,44C766.192,44 892,164.883 892,314Z" fill="#202B7D"/>
</g>
<g opacity="0.6">
<path d="M990,262C990,406.698 853.894,524 686,524C518.105,524 382,406.698 382,262C382,117.301 518.105,0 686,0C853.894,0 990,117.301 990,262Z" fill="#202B7D"/>
</g>
<path d="M590.488,223.454L590.488,230.701L593.603,230.701L593.603,237.947L590.488,237.947L590.488,245.194L543.771,245.194L543.771,223.454L590.488,223.454ZM592.046,216.207L542.214,216.207C539.634,216.207 537.542,218.641 537.542,221.642L537.542,247.006C537.542,250.007 539.634,252.441 542.214,252.441L592.046,252.441C594.626,252.441 596.717,250.007 596.717,247.006L596.717,245.194L597.496,245.194C598.786,245.194 599.832,243.977 599.832,242.477L599.832,226.172C599.832,224.671 598.786,223.454 597.496,223.454L596.717,223.454L596.717,221.642C596.717,218.641 594.626,216.207 592.046,216.207ZM568.687,227.077L546.885,227.077L546.885,241.571L568.687,241.571L568.687,227.077Z" fill="#000000"/>
<path d="M480.658,230.801L476.89,230.801C476.197,230.801 475.635,231.364 475.635,232.059L475.635,247.157C475.635,247.852 476.197,248.415 476.89,248.415L480.658,248.415C481.352,248.415 481.914,247.852 481.914,247.157L481.914,232.059C481.914,231.364 481.352,230.801 480.658,230.801ZM470.611,238.35L466.844,238.35C466.15,238.35 465.588,238.913 465.588,239.608L465.588,247.157C465.588,247.852 466.15,248.415 466.844,248.415L470.611,248.415C471.305,248.415 471.867,247.852 471.867,247.157L471.867,239.608C471.867,238.913 471.305,238.35 470.611,238.35ZM490.705,223.253L486.937,223.253C486.243,223.253 485.681,223.816 485.681,224.511L485.681,247.157C485.681,247.852 486.243,248.415 486.937,248.415L490.705,248.415C491.398,248.415 491.96,247.852 491.96,247.157L491.96,224.511C491.96,223.816 491.398,223.253 490.705,223.253ZM500.751,215.704L496.984,215.704C496.29,215.704 495.728,216.267 495.728,216.962L495.728,247.157C495.728,247.852 496.29,248.415 496.984,248.415L500.751,248.415C501.445,248.415 502.007,247.852 502.007,247.157L502.007,216.962C502.007,216.267 501.445,215.704 500.751,215.704ZM510.798,208.156L507.031,208.156C506.337,208.156 505.775,208.719 505.775,209.414L505.775,247.157C505.775,247.852 506.337,248.415 507.031,248.415L510.798,248.415C511.492,248.415 512.054,247.852 512.054,247.157L512.054,209.414C512.054,208.719 511.492,208.156 510.798,208.156Z" fill="#000000"/>
<path d="M457.118,221.844C443.212,208.958 421.584,208.963 407.684,221.844C407.161,222.328 407.151,223.148 407.656,223.651L410.344,226.322C410.826,226.801 411.601,226.812 412.102,226.352C423.555,215.84 441.245,215.838 452.701,226.352C453.202,226.812 453.977,226.801 454.459,226.322L457.147,223.651C457.651,223.148 457.641,222.328 457.118,221.844ZM432.401,237.343C429.626,237.343 427.378,239.596 427.378,242.376C427.378,245.155 429.626,247.408 432.401,247.408C435.176,247.408 437.424,245.155 437.424,242.376C437.424,239.596 435.176,237.343 432.401,237.343ZM448.309,230.771C439.262,222.756 425.53,222.764 416.493,230.771C415.952,231.25 415.934,232.083 416.449,232.591L419.152,235.264C419.623,235.729 420.381,235.761 420.883,235.327C427.472,229.62 437.345,229.633 443.919,235.327C444.42,235.761 445.178,235.73 445.649,235.264L448.352,232.591C448.867,232.083 448.849,231.249 448.309,230.771Z" fill="#000000"/>
<path d="M0,688C0,599.634 71.634,528 160,528L286,528C374.366,528 446,599.634 446,688L446,804C446,892.366 374.366,964 286,964L160,964C71.634,964 0,892.366 0,804L0,688Z" fill="url(#pattern_0_74_99)"/>
</svg>
