<svg width="158" height="126" viewBox="0 0 158 126" fill="none" xmlns="http://www.w3.org/2000/svg" xmlns:xlink="http://www.w3.org/1999/xlink">
<path d="M0,63C0,28.206 28.206,0 63,0L95,0C129.794,0 158,28.206 158,63L158,63C158,97.794 129.794,126 95,126L63,126C28.206,126 0,97.794 0,63L0,63Z" fill="#0000FF" stroke="#000000" stroke-width="1" stroke-miterlimit="3.999327"/>
<path d="M107.663,50.696L99.193,103.65C98.554,107.387 96.887,108.318 94.519,106.557L81.613,93.95L75.385,101.889C74.696,102.803 74.12,103.567 72.791,103.567L73.719,86.143L97.639,57.49C98.679,56.26 97.413,55.579 96.022,56.809L66.451,81.492L53.72,76.21C50.951,75.064 50.901,72.539 54.297,70.778L104.092,45.347C106.397,44.201 108.415,46.028 107.663,50.696Z" fill="#FFFFFF"/>
</svg>
