<svg width="444" height="192" viewBox="0 0 444 192" fill="none" xmlns="http://www.w3.org/2000/svg" xmlns:xlink="http://www.w3.org/1999/xlink">
<path d="M6.021,191.881C3.474,191.881 2.201,190.458 2.201,187.613C2.322,186.116 3.778,184.319 6.567,182.222L8.75,180.201C14.087,173.762 16.755,162.306 16.755,145.835C16.755,135.652 16.452,124.571 15.846,112.592C15.239,96.569 14.936,86.462 14.936,82.269L13.844,47.454C13.238,27.688 12.935,14.136 12.935,6.798C10.994,6.798 9.175,6.873 7.477,7.023L2.019,7.248C1.291,7.248 0.721,6.903 0.309,6.214C-0.128,5.556 -0.346,4.777 -0.346,3.878C-0.346,2.081 0.139,0.958 1.109,0.509C2.08,-0.09 4.384,-0.389 8.023,-0.389L14.936,-0.165L24.578,-0.165C25.427,-0.165 26.131,0.21 26.689,0.958C27.222,1.707 27.489,2.531 27.489,3.429C27.489,4.777 27.162,5.675 26.507,6.125C25.828,6.574 24.518,6.798 22.577,6.798L18.575,6.798C18.575,27.014 19.242,52.245 20.576,82.493C20.818,86.537 21.061,93.425 21.304,103.158C22.153,121.876 22.577,133.032 22.577,136.626C22.577,142.915 22.492,147.856 22.322,151.45C22.128,155.044 21.728,158.937 21.122,163.13C20.515,167.473 19.642,171.186 18.502,174.271C17.337,177.326 15.724,180.35 13.662,183.345C11.601,186.64 9.054,189.485 6.021,191.881ZM70.425,173.462C68.484,173.462 66.386,172.684 64.13,171.126C61.898,169.539 60.055,167.697 58.599,165.601C56.901,162.905 55.567,155.343 54.597,142.915C53.626,130.486 53.02,116.261 52.777,100.238C52.777,96.644 52.717,93.949 52.596,92.152C52.353,54.566 51.868,32.33 51.14,25.441L52.232,22.297C55.021,22.746 56.416,26.864 56.416,34.651L56.962,94.173C56.962,98.366 57.265,106.303 57.871,117.983C58.599,128.465 58.963,136.401 58.963,141.792C58.963,158.862 63.511,167.398 72.608,167.398C78.187,167.398 81.765,151.675 83.342,120.229L83.524,115.736C84.373,74.557 84.797,44.084 84.797,24.318L84.615,22.297C84.494,21.698 84.433,21.024 84.433,20.275C84.433,18.628 85.464,17.804 87.526,17.804C88.982,17.804 89.891,18.254 90.255,19.152C90.498,20.65 90.619,23.27 90.619,27.014C90.619,38.394 90.255,46.031 89.527,49.924L89.709,51.272C89.709,53.219 89.527,56.214 89.164,60.257L88.8,69.241L88.8,71.487C88.921,72.086 88.982,72.835 88.982,73.734C88.739,77.327 88.618,80.771 88.618,84.066C88.496,85.114 88.436,86.761 88.436,89.007C88.193,103.233 87.951,115.587 87.708,126.069C87.344,139.096 85.889,150.102 83.342,159.087C80.673,168.671 76.368,173.462 70.425,173.462ZM119.91,172.788C118.551,172.489 117.266,171.86 116.053,170.902C114.84,169.913 114.185,168.745 114.088,167.398L114.998,165.601C115.458,165.601 116.538,165.825 118.236,166.275C119.57,166.874 120.662,167.173 121.511,167.173C124.179,167.173 126.556,165.855 128.642,163.22C130.704,160.614 132.269,157.215 133.336,153.022C135.058,145.236 135.92,137.898 135.92,131.01C135.92,120.678 133.36,109.597 128.242,97.767C125.113,90.879 122.687,85.413 120.965,81.37C119.267,77.327 117.751,72.685 116.417,67.444C114.864,61.305 114.088,55.39 114.088,49.7C114.088,44.309 115.167,37.945 117.326,30.608C118.442,27.163 119.995,24.348 121.984,22.162C123.997,20.006 126.144,18.928 128.424,18.928C130.025,18.928 131.578,19.601 133.081,20.949C134.61,22.297 135.374,23.719 135.374,25.217C135.374,26.415 134.573,27.014 132.972,27.014C132.511,27.014 131.905,26.789 131.153,26.34C130.425,25.891 129.758,25.666 129.152,25.666C127.332,25.666 125.695,26.565 124.24,28.361C122.784,30.158 121.693,32.479 120.965,35.324C119.509,40.865 118.782,45.956 118.782,50.598C118.782,53.443 119.085,56.363 119.691,59.358C119.837,60.257 119.958,61.005 120.055,61.604C120.177,62.203 120.237,62.653 120.237,62.952L121.365,67.444L122.275,71.487L123.694,75.53C124.058,76.579 124.458,77.507 124.895,78.316C125.307,79.154 125.695,79.948 126.059,80.697L128.242,85.413C128.752,86.312 129.795,88.438 131.371,91.793C132.924,95.177 134.367,98.741 135.701,102.484C136.914,105.629 137.824,108.579 138.43,111.334C139.037,114.119 139.582,117.458 140.068,121.352C140.456,125.095 140.65,129.213 140.65,133.706C140.65,140.893 139.849,147.632 138.248,153.921C136.089,161.408 132.936,166.649 128.788,169.644C126.508,171.441 123.852,172.339 120.819,172.339L119.91,172.788ZM134.246,26.34L134.464,26.34C134.464,26.19 134.391,26.115 134.246,26.115L134.246,26.34ZM176.636,168.745L174.634,166.948L174.452,158.638C174.331,156.242 174.27,153.546 174.27,150.552C174.27,149.054 174.331,147.781 174.452,146.733L174.634,142.69C174.634,141.193 174.392,139.396 173.907,137.299C173.907,127.267 173.3,108.624 172.087,81.37C170.874,55.016 170.207,37.121 170.086,27.688C162.566,27.688 157.533,27.463 154.986,27.014C152.56,26.265 151.347,25.067 151.347,23.42C151.954,21.773 153.106,20.949 154.804,20.949C158.443,20.949 163.719,21.249 170.632,21.848C176.939,22.596 182.215,22.971 186.46,22.971L190.28,22.971L194.101,22.746C196.284,22.746 197.376,23.719 197.376,25.666C197.376,26.565 196.988,27.268 196.211,27.777C195.411,28.317 194.465,28.586 193.373,28.586C190.947,28.586 188.4,28.436 185.732,28.137L177.909,27.688C177.424,27.688 177.181,27.912 177.181,28.361C177.06,28.811 176.999,30.233 176.999,32.629C176.999,47.154 177.727,69.166 179.183,98.666C180.517,129.213 181.184,151.151 181.184,164.478C181.184,165.526 180.674,166.499 179.656,167.398C178.613,168.296 177.606,168.745 176.636,168.745ZM264.69,171.441C263.478,171.441 262.568,170.872 261.962,169.734C261.354,168.626 261.052,167.248 261.052,165.601L261.052,145.61L261.052,125.619L260.688,89.681C260.324,73.659 260.142,61.679 260.142,53.743L260.324,47.229L260.324,32.629C260.324,16.457 260.202,8.371 259.96,8.371L239.402,8.371C238.432,8.371 237.546,8.071 236.746,7.472C235.97,6.873 235.582,6.05 235.582,5.001C235.582,3.804 235.764,2.98 236.126,2.531C236.49,2.081 237.462,1.707 239.038,1.408C240.736,0.958 243.162,0.734 246.316,0.734L264.508,0.734L284.52,0.509C285.976,0.509 286.97,0.809 287.504,1.408C288.062,2.007 288.34,2.98 288.34,4.328C288.34,6.574 287.188,7.697 284.884,7.697L276.698,7.697L268.692,7.697L267.056,7.921L267.238,20.949L267.238,38.469L267.238,129.662L267.238,148.306L267.418,164.927L267.418,165.376C267.418,166.574 267.358,167.577 267.238,168.386C267.116,169.225 266.874,169.868 266.51,170.318C266.146,171.066 265.54,171.441 264.69,171.441ZM334.37,172.115C332.55,172.115 331.398,171.86 330.912,171.351C330.428,170.812 330.064,169.419 329.822,167.173C328.73,156.242 328.062,149.429 327.82,146.733L326.91,137.749C324.242,137 321.21,136.626 317.814,136.626L311.264,136.176C308.354,135.727 306.23,135.502 304.896,135.502C304.168,135.502 303.744,135.877 303.624,136.626C303.624,137.075 303.562,137.299 303.442,137.299L303.078,141.792C302.956,144.487 302.288,149.878 301.076,157.964C300.47,162.007 299.742,165.152 298.892,167.398C297.922,169.943 297.012,171.216 296.164,171.216C295.436,171.216 294.648,170.797 293.798,169.958C292.95,169.15 292.526,168.296 292.526,167.398L292.708,166.724L292.89,166.05C295.072,155.418 296.892,144.861 298.348,134.379L300.53,120.453L302.714,103.383C302.714,103.383 303.38,98.441 304.714,88.558C305.322,84.515 306.412,78.001 307.99,69.017C309.688,58.834 310.718,51.871 311.082,48.128C311.204,47.678 311.446,44.908 311.81,39.817C312.296,34.127 312.72,29.934 313.084,27.238C313.448,23.345 313.812,21.099 314.176,20.5L315.448,20.5C315.812,20.65 316.236,20.725 316.722,20.725C318.178,20.725 319.27,20.275 319.996,19.377C320.846,19.377 321.598,19.706 322.252,20.365C322.932,21.054 323.272,21.848 323.272,22.746C323.272,29.934 323.696,38.17 324.546,47.454C325.03,52.245 325.394,56.214 325.636,59.358C326.97,78.675 330.366,114.913 335.824,168.072L335.824,168.745C335.824,170.243 335.34,171.366 334.37,172.115ZM324.182,131.684L326,131.684C324.788,110.121 322.484,78.301 319.088,36.223L309.262,96.195C306.474,113.415 305.078,124.272 305.078,128.764C305.078,129.513 307.384,130.187 311.992,130.786C316.6,131.385 320.664,131.684 324.182,131.684ZM358.712,173.013C357.014,173.013 355.982,171.291 355.618,167.847C355.862,166.948 355.982,164.478 355.982,160.435C355.982,146.658 356.164,126.218 356.528,99.115C356.892,72.161 357.074,52.695 357.074,40.715L357.438,32.629L357.984,25.891C357.984,24.842 358.408,24.318 359.258,24.318C359.864,24.318 360.712,24.543 361.804,24.992L362.35,25.217C362.35,28.511 362.29,31.506 362.168,34.201L362.168,42.961L362.168,67.444C362.29,74.632 362.35,82.793 362.35,91.927C362.228,92.676 362.168,94.323 362.168,96.869L361.986,101.586C361.866,104.581 361.804,107.65 361.804,110.795C361.804,114.239 361.866,117.384 361.986,120.229L362.168,129.887L361.622,131.684L361.804,131.459C361.804,131.909 361.744,132.208 361.622,132.358L361.622,133.256C361.622,134.454 361.804,135.502 362.168,136.401L361.622,157.964L361.622,159.312C361.622,161.857 361.684,163.355 361.804,163.804C361.804,164.553 362.108,164.927 362.714,164.927L372.174,165.376C374.964,165.376 376.88,165.406 377.924,165.466C378.942,165.556 379.572,165.601 379.816,165.601L380.362,165.601C380.968,165.601 381.574,166.005 382.18,166.814C382.788,167.652 383.09,168.521 383.09,169.419C383.09,171.216 382.12,172.189 380.18,172.339C378.118,172.189 373.084,172.115 365.08,172.115L365.444,172.339C364.23,172.339 363.078,172.414 361.986,172.564C361.016,172.863 359.924,173.013 358.712,173.013ZM440.58,174.136C437.67,174.136 434.212,167.398 430.21,153.921C426.45,141.492 423.176,128.015 420.386,113.49C417.596,98.965 416.08,88.783 415.838,82.943L415.292,82.044L412.562,89.232C411.228,92.377 410.234,94.952 409.58,96.959C408.9,98.995 408.258,101.511 407.65,104.506C406.924,107.351 406.56,110.271 406.56,113.266C406.56,116.261 406.438,118.956 406.196,121.352L405.832,129.438L405.832,158.189C405.832,159.536 406.014,161.707 406.378,164.702C406.742,167.398 406.924,169.494 406.924,170.992C406.924,171.74 406.62,172.384 406.014,172.923C405.408,173.432 404.74,173.687 404.012,173.687C402.436,173.687 401.38,173.387 400.846,172.788C400.288,172.189 400.01,170.917 400.01,168.97L400.01,126.743C400.01,124.347 400.314,119.63 400.92,112.592C401.526,105.554 401.83,100.837 401.83,98.441C401.83,92.152 402.132,84.889 402.738,76.654C403.224,68.268 403.466,61.08 403.466,55.091L403.466,23.869C404.194,22.222 405.346,21.398 406.924,21.398C407.894,21.398 408.718,21.803 409.398,22.611C410.052,23.45 410.38,24.468 410.38,25.666C409.41,28.361 408.924,31.955 408.924,36.448L408.56,60.032C408.318,67.22 408.196,75.156 408.196,83.841C409.41,83.392 414.14,73.06 422.388,52.844C430.634,32.779 435.182,22.746 436.032,22.746C439.186,22.746 440.762,24.019 440.762,26.565C433,40.79 426.572,54.641 421.478,68.118L421.296,75.306C421.174,77.402 421.114,79.798 421.114,82.493C421.114,89.082 423.176,101.436 427.3,119.555C431.424,137.674 434.94,150.252 437.852,157.29C439.186,159.536 439.974,160.809 440.216,161.109C441.43,163.205 442.314,164.957 442.872,166.364C443.406,167.802 443.674,169.27 443.674,170.767C443.674,171.815 443.37,172.639 442.764,173.238C442.156,173.837 441.43,174.136 440.58,174.136Z" fill="#0C0150"/>
</svg>
