<svg width="444" height="48" viewBox="0 0 444 48" fill="none" xmlns="http://www.w3.org/2000/svg" xmlns:xlink="http://www.w3.org/1999/xlink">
<path d="M22.47,34.922C22.656,34.922 22.801,35.043 22.905,35.286C23.005,35.525 23.055,35.839 23.055,36.229C23.055,36.963 22.897,37.686 22.581,38.397C21.95,39.82 21.119,40.916 20.089,41.687C19.056,42.453 18.001,42.836 16.923,42.836C15.827,42.836 14.907,42.625 14.164,42.203C13.421,41.776 12.789,41.146 12.268,40.311C11.748,39.471 11.246,38.363 10.763,36.986C10.262,35.564 9.849,34.504 9.526,33.807C9.199,33.105 8.859,32.593 8.506,32.272C8.153,31.951 7.697,31.721 7.14,31.584C5.077,31.079 3.42,29.817 2.168,27.798C0.911,25.78 0.283,23.176 0.283,19.987C0.283,16.5 0.8,13.426 1.833,10.764C2.862,8.103 4.265,6.05 6.042,4.605C7.814,3.159 9.779,2.437 11.934,2.437C13.588,2.437 15.08,2.896 16.41,3.813C17.737,4.731 18.791,6.08 19.571,7.86C20.352,9.636 20.742,11.762 20.742,14.24C20.742,17.131 20.389,19.735 19.683,22.052C18.976,24.369 18.001,26.296 16.756,27.833C15.511,29.37 14.08,30.46 12.464,31.102C12.928,31.423 13.333,31.893 13.679,32.513C14.021,33.132 14.387,34.027 14.777,35.197C15.204,36.482 15.665,37.399 16.159,37.95C16.65,38.5 17.258,38.776 17.982,38.776C18.596,38.776 19.19,38.519 19.766,38.005C20.342,37.486 20.993,36.642 21.717,35.472C21.94,35.105 22.191,34.922 22.47,34.922ZM9.37,27.73C10.819,27.73 12.098,27.179 13.205,26.078C14.309,24.977 15.158,23.444 15.753,21.48C16.347,19.521 16.644,17.303 16.644,14.825C16.644,12.095 16.18,10.023 15.251,8.61C14.322,7.202 13.123,6.497 11.655,6.497C10.243,6.497 8.983,7.053 7.876,8.163C6.772,9.278 5.914,10.81 5.3,12.76C4.687,14.71 4.381,16.924 4.381,19.402C4.381,22.132 4.845,24.204 5.774,25.617C6.703,27.025 7.902,27.73 9.37,27.73ZM25.146,31.79C24.309,31.79 23.626,31.313 23.094,30.359C22.566,29.409 22.303,28.223 22.303,26.8C22.303,25.08 22.396,23.502 22.581,22.065C22.767,20.634 23.074,19.115 23.501,17.509C23.687,16.821 23.947,16.328 24.282,16.029C24.616,15.731 25.146,15.582 25.87,15.582C26.279,15.582 26.562,15.662 26.718,15.823C26.877,15.984 26.957,16.224 26.957,16.546C26.957,16.729 26.855,17.349 26.651,18.404C26.465,19.253 26.316,20.021 26.205,20.71C25.833,23.118 25.647,24.724 25.647,25.527C25.647,26.009 25.694,26.346 25.787,26.539C25.88,26.736 26.028,26.835 26.233,26.835C26.511,26.835 26.859,26.491 27.275,25.803C27.695,25.114 28.141,24.07 28.613,22.671C29.089,21.272 29.549,19.551 29.995,17.509C30.144,16.821 30.371,16.328 30.676,16.029C30.984,15.731 31.445,15.582 32.058,15.582C32.485,15.582 32.783,15.644 32.95,15.768C33.117,15.896 33.201,16.133 33.201,16.477C33.201,17.05 32.968,18.622 32.504,21.191C31.984,24.128 31.724,25.94 31.724,26.628C31.724,27.064 31.798,27.402 31.947,27.64C32.095,27.883 32.29,28.005 32.532,28.005C32.903,28.005 33.344,27.723 33.853,27.158C34.366,26.599 35.05,25.688 35.904,24.426C36.127,24.105 36.378,23.944 36.657,23.944C36.899,23.944 37.088,24.082 37.226,24.357C37.367,24.633 37.437,25.011 37.437,25.493C37.437,26.41 37.261,27.122 36.908,27.626C36.109,28.842 35.248,29.84 34.327,30.62C33.409,31.4 32.365,31.79 31.194,31.79C30.302,31.79 29.646,31.366 29.226,30.517C28.81,29.668 28.602,28.475 28.602,26.938C28.286,28.498 27.812,29.696 27.18,30.531C26.549,31.37 25.87,31.79 25.146,31.79ZM38.608,31.79C37.456,31.79 36.536,31.274 35.849,30.242C35.161,29.209 34.817,27.856 34.817,26.181C34.817,24.346 35.161,22.607 35.849,20.964C36.536,19.326 37.45,18.007 38.591,17.007C39.736,16.011 40.949,15.513 42.231,15.513C42.64,15.513 42.913,15.61 43.051,15.802C43.192,16 43.309,16.351 43.402,16.855C43.792,16.764 44.201,16.718 44.628,16.718C45.539,16.718 45.994,17.119 45.994,17.922C45.994,18.404 45.855,19.551 45.576,21.363C45.149,24.002 44.935,25.837 44.935,26.869C44.935,27.213 45.004,27.489 45.141,27.695C45.283,27.902 45.465,28.005 45.688,28.005C46.041,28.005 46.468,27.723 46.97,27.158C47.471,26.599 48.15,25.688 49.004,24.426C49.227,24.105 49.478,23.944 49.757,23.944C49.999,23.944 50.188,24.082 50.326,24.357C50.467,24.633 50.537,25.011 50.537,25.493C50.537,26.41 50.361,27.122 50.008,27.626C49.246,28.796 48.438,29.783 47.583,30.586C46.728,31.389 45.901,31.79 45.102,31.79C44.489,31.79 43.926,31.531 43.413,31.012C42.904,30.499 42.519,29.794 42.259,28.9C41.293,30.827 40.076,31.79 38.608,31.79ZM39.611,28.315C40.02,28.315 40.41,28.016 40.782,27.42C41.154,26.823 41.423,26.032 41.59,25.045L42.622,18.714C41.841,18.737 41.12,19.097 40.459,19.794C39.801,20.496 39.277,21.421 38.887,22.568C38.497,23.715 38.301,24.931 38.301,26.215C38.301,26.927 38.417,27.454 38.647,27.798C38.881,28.143 39.203,28.315 39.611,28.315ZM58.838,23.944C59.079,23.944 59.271,24.082 59.412,24.357C59.55,24.633 59.618,25.011 59.618,25.493C59.618,26.41 59.442,27.122 59.089,27.626C58.29,28.842 57.422,29.84 56.485,30.62C55.545,31.4 54.48,31.79 53.291,31.79C51.656,31.79 50.445,30.873 49.657,29.037C48.865,27.202 48.469,24.828 48.469,21.914C48.469,19.115 48.763,15.926 49.35,12.347C49.934,8.769 50.798,5.694 51.942,3.125C53.083,0.556 54.443,-0.729 56.023,-0.729C56.915,-0.729 57.617,-0.22 58.13,0.799C58.639,1.822 58.894,3.286 58.894,5.19C58.894,7.92 58.28,11.086 57.054,14.687C55.828,18.289 54.165,21.857 52.065,25.39C52.195,26.33 52.409,27 52.706,27.399C53.003,27.803 53.393,28.005 53.877,28.005C54.638,28.005 55.307,27.734 55.883,27.193C56.459,26.656 57.193,25.734 58.085,24.426C58.308,24.105 58.559,23.944 58.838,23.944ZM55.41,2.678C54.982,2.678 54.499,3.63 53.96,5.534C53.421,7.438 52.947,9.801 52.539,12.623C52.13,15.444 51.907,18.152 51.87,20.744C53.189,18.06 54.239,15.369 55.019,12.671C55.8,9.978 56.19,7.518 56.19,5.293C56.19,3.549 55.93,2.678 55.41,2.678ZM61.012,13.311C60.231,13.311 59.646,13.086 59.256,12.636C58.866,12.191 58.671,11.567 58.671,10.764C58.671,9.962 58.927,9.289 59.44,8.748C59.949,8.211 60.585,7.943 61.346,7.943C62.034,7.943 62.591,8.149 63.019,8.562C63.446,8.975 63.66,9.56 63.66,10.317C63.66,11.235 63.418,11.962 62.935,12.499C62.452,13.04 61.811,13.311 61.012,13.311ZM60.789,31.79C59.581,31.79 58.704,31.263 58.158,30.207C57.608,29.152 57.333,27.753 57.333,26.009C57.333,24.977 57.441,23.651 57.656,22.031C57.868,20.416 58.141,18.909 58.476,17.509C58.643,16.775 58.866,16.27 59.144,15.995C59.423,15.72 59.869,15.582 60.482,15.582C61.43,15.582 61.904,15.972 61.904,16.752C61.904,17.326 61.727,18.656 61.374,20.744C60.928,23.268 60.705,24.977 60.705,25.871C60.705,26.56 60.78,27.087 60.928,27.454C61.077,27.821 61.328,28.005 61.681,28.005C62.015,28.005 62.433,27.718 62.935,27.145C63.437,26.571 64.106,25.665 64.942,24.426C65.165,24.105 65.416,23.944 65.694,23.944C65.936,23.944 66.127,24.082 66.269,24.357C66.406,24.633 66.475,25.011 66.475,25.493C66.475,26.41 66.298,27.122 65.945,27.626C64.106,30.402 62.387,31.79 60.789,31.79ZM76.648,23.944C76.89,23.944 77.079,24.082 77.217,24.357C77.358,24.633 77.429,25.011 77.429,25.493C77.429,26.41 77.252,27.122 76.899,27.626C76.1,28.842 75.227,29.84 74.279,30.62C73.332,31.4 72.245,31.79 71.018,31.79C67.227,31.79 65.332,28.498 65.332,21.914C65.332,20.905 65.36,19.884 65.416,18.851L64.329,18.851C63.771,18.851 63.394,18.725 63.197,18.473C63.004,18.22 62.907,17.819 62.907,17.268C62.907,15.984 63.325,15.341 64.161,15.341L65.75,15.341C66.066,12.818 66.549,10.512 67.2,8.424C67.85,6.337 68.634,4.674 69.552,3.435C70.474,2.196 71.464,1.577 72.523,1.577C73.304,1.577 73.917,2.001 74.363,2.85C74.809,3.699 75.032,4.765 75.032,6.05C75.032,9.606 73.824,12.703 71.408,15.341L74.53,15.341C74.827,15.341 75.041,15.422 75.171,15.582C75.301,15.743 75.366,16.041 75.366,16.477C75.366,18.06 74.316,18.851 72.217,18.851L68.816,18.851C68.779,19.998 68.76,20.893 68.76,21.535C68.76,23.921 68.987,25.596 69.441,26.56C69.898,27.523 70.619,28.005 71.603,28.005C72.402,28.005 73.109,27.707 73.722,27.11C74.335,26.514 75.06,25.619 75.896,24.426C76.119,24.105 76.37,23.944 76.648,23.944ZM71.771,4.88C71.492,4.88 71.18,5.309 70.834,6.167C70.492,7.03 70.167,8.223 69.859,9.746C69.554,11.274 69.299,12.967 69.095,14.825C70.191,13.655 71.013,12.341 71.559,10.881C72.109,9.427 72.384,8.103 72.384,6.91C72.384,5.557 72.179,4.88 71.771,4.88ZM89.442,24.013C89.683,24.013 89.873,24.155 90.01,24.44C90.152,24.729 90.222,25.091 90.222,25.527C90.222,26.055 90.157,26.468 90.027,26.766C89.897,27.064 89.693,27.328 89.414,27.558L84.062,31.997C83.356,36.745 82.431,40.478 81.286,43.194C80.145,45.915 78.692,47.275 76.927,47.275C75.979,47.275 75.208,46.915 74.614,46.195C74.019,45.47 73.722,44.523 73.722,43.353C73.722,42.274 73.921,41.173 74.318,40.049C74.72,38.925 75.463,37.636 76.548,36.181C77.637,34.722 79.175,33.052 81.164,31.171L81.247,30.379C81.377,29.53 81.526,28.315 81.693,26.732C81.322,28.383 80.801,29.638 80.132,30.496C79.463,31.359 78.757,31.79 78.014,31.79C77.178,31.79 76.494,31.313 75.963,30.359C75.435,29.409 75.171,28.223 75.171,26.8C75.171,25.08 75.264,23.502 75.45,22.065C75.636,20.634 75.942,19.115 76.37,17.509C76.555,16.821 76.816,16.328 77.15,16.029C77.485,15.731 78.014,15.582 78.739,15.582C79.148,15.582 79.43,15.662 79.586,15.823C79.746,15.984 79.826,16.224 79.826,16.546C79.826,16.729 79.724,17.349 79.519,18.404C79.333,19.253 79.185,20.021 79.073,20.71C78.925,21.65 78.795,22.549 78.683,23.407C78.572,24.27 78.516,24.977 78.516,25.527C78.516,26.399 78.711,26.835 79.101,26.835C79.38,26.835 79.727,26.491 80.144,25.803C80.564,25.114 81.009,24.07 81.481,22.671C81.957,21.272 82.418,19.551 82.864,17.509C83.013,16.821 83.239,16.328 83.544,16.029C83.852,15.731 84.313,15.582 84.926,15.582C85.354,15.582 85.651,15.651 85.818,15.789C85.986,15.926 86.069,16.156 86.069,16.477C86.069,17.05 85.828,19.023 85.345,22.396L84.62,27.936C86.051,26.605 87.444,25.39 88.801,24.288C89.042,24.105 89.256,24.013 89.442,24.013ZM77.234,43.938C77.698,43.938 78.218,43.272 78.795,41.942C79.371,40.611 79.947,38.397 80.523,35.3C79.092,36.791 78.055,38.152 77.412,39.381C76.773,40.606 76.453,41.678 76.453,42.595C76.453,42.985 76.513,43.307 76.632,43.559C76.754,43.811 76.955,43.938 77.234,43.938ZM107.191,31.79C104.98,31.79 103.057,31.29 101.421,30.29C99.786,29.294 98.532,27.879 97.659,26.043C96.785,24.208 96.349,22.075 96.349,19.643C96.349,16.27 96.865,13.277 97.898,10.661C98.928,8.046 100.325,6.02 102.09,4.584C103.856,3.153 105.816,2.437 107.971,2.437C109.978,2.437 111.502,3.072 112.543,4.343C113.583,5.619 114.103,7.3 114.103,9.388C114.103,10.787 113.905,11.912 113.507,12.76C113.106,13.609 112.533,14.034 111.79,14.034C111.27,14.034 110.861,13.884 110.564,13.586C110.266,13.288 110.118,12.852 110.118,12.279C110.118,12.072 110.155,11.694 110.229,11.143C110.341,10.455 110.396,9.904 110.396,9.491C110.396,7.404 109.495,6.36 107.693,6.36C106.466,6.36 105.296,6.853 104.181,7.839C103.066,8.826 102.165,10.276 101.477,12.189C100.79,14.107 100.446,16.385 100.446,19.023C100.446,21.776 101.068,23.903 102.313,25.403C103.558,26.908 105.398,27.661 107.832,27.661C109.04,27.661 110.263,27.47 111.5,27.09C112.734,26.713 114.103,26.135 115.608,25.355C115.887,25.218 116.119,25.149 116.305,25.149C116.603,25.149 116.826,25.286 116.974,25.562C117.123,25.837 117.197,26.193 117.197,26.628C117.197,28.028 116.584,29.06 115.358,29.725C114.038,30.437 112.669,30.957 111.249,31.288C109.826,31.623 108.473,31.79 107.191,31.79ZM118.451,31.79C117.299,31.79 116.38,31.274 115.692,30.242C115.005,29.209 114.661,27.856 114.661,26.181C114.661,24.346 115.005,22.607 115.692,20.964C116.38,19.326 117.294,18.007 118.435,17.007C119.579,16.011 120.793,15.513 122.075,15.513C122.484,15.513 122.757,15.61 122.894,15.802C123.036,16 123.153,16.351 123.246,16.855C123.636,16.764 124.045,16.718 124.472,16.718C125.382,16.718 125.838,17.119 125.838,17.922C125.838,18.404 125.698,19.551 125.42,21.363C124.992,24.002 124.779,25.837 124.779,26.869C124.779,27.213 124.847,27.489 124.985,27.695C125.126,27.902 125.308,28.005 125.531,28.005C125.884,28.005 126.311,27.723 126.813,27.158C127.315,26.599 127.993,25.688 128.848,24.426C129.071,24.105 129.322,23.944 129.6,23.944C129.842,23.944 130.032,24.082 130.169,24.357C130.31,24.633 130.381,25.011 130.381,25.493C130.381,26.41 130.204,27.122 129.851,27.626C129.089,28.796 128.281,29.783 127.426,30.586C126.572,31.389 125.745,31.79 124.946,31.79C124.333,31.79 123.77,31.531 123.257,31.012C122.748,30.499 122.363,29.794 122.103,28.9C121.137,30.827 119.919,31.79 118.451,31.79ZM119.455,28.315C119.864,28.315 120.254,28.016 120.626,27.42C120.997,26.823 121.267,26.032 121.434,25.045L122.465,18.714C121.685,18.737 120.964,19.097 120.302,19.794C119.644,20.496 119.12,21.421 118.73,22.568C118.34,23.715 118.145,24.931 118.145,26.215C118.145,26.927 118.26,27.454 118.49,27.798C118.725,28.143 119.046,28.315 119.455,28.315ZM130.102,31.79C129.396,31.79 128.898,31.331 128.608,30.414C128.322,29.496 128.179,28.028 128.179,26.009C128.179,23.027 128.523,20.193 129.21,17.509C129.377,16.844 129.651,16.355 130.03,16.043C130.412,15.736 130.948,15.582 131.635,15.582C132.007,15.582 132.267,15.639 132.416,15.754C132.564,15.869 132.639,16.087 132.639,16.408C132.639,16.775 132.499,17.601 132.22,18.886C132.035,19.803 131.886,20.606 131.775,21.295C131.663,21.983 131.57,22.832 131.496,23.841C132.109,21.868 132.796,20.262 133.558,19.023C134.32,17.784 135.067,16.901 135.799,16.374C136.535,15.846 137.21,15.582 137.823,15.582C139.031,15.582 139.635,16.328 139.635,17.819C139.635,18.117 139.551,18.84 139.384,19.987C139.235,20.905 139.161,21.478 139.161,21.708C139.161,22.51 139.393,22.912 139.858,22.912C140.378,22.912 141.047,22.407 141.864,21.398C142.106,21.1 142.357,20.95 142.617,20.95C142.858,20.95 143.048,21.081 143.185,21.343C143.327,21.609 143.397,21.96 143.397,22.396C143.397,23.245 143.211,23.91 142.84,24.392C142.32,25.057 141.71,25.624 141.011,26.092C140.316,26.564 139.579,26.8 138.798,26.8C137.814,26.8 137.065,26.491 136.552,25.871C136.043,25.252 135.788,24.415 135.788,23.359C135.788,23.015 135.816,22.671 135.872,22.327C135.909,21.868 135.927,21.558 135.927,21.398C135.927,21.031 135.825,20.847 135.621,20.847C135.342,20.847 134.974,21.23 134.517,21.997C134.064,22.767 133.614,23.784 133.168,25.045C132.722,26.307 132.36,27.638 132.081,29.037C131.877,30.115 131.639,30.843 131.368,31.219C131.1,31.6 130.678,31.79 130.102,31.79ZM153.231,23.944C153.472,23.944 153.664,24.082 153.805,24.357C153.942,24.633 154.011,25.011 154.011,25.493C154.011,26.41 153.835,27.122 153.482,27.626C152.794,28.659 151.824,29.611 150.572,30.483C149.316,31.354 147.972,31.79 146.541,31.79C144.59,31.79 143.076,31.136 141.998,29.829C140.92,28.521 140.382,26.732 140.382,24.46C140.382,22.878 140.651,21.405 141.19,20.042C141.729,18.675 142.478,17.589 143.436,16.787C144.391,15.984 145.473,15.582 146.681,15.582C147.758,15.582 148.622,15.977 149.273,16.766C149.923,17.56 150.248,18.633 150.248,19.987C150.248,21.57 149.789,22.928 148.871,24.061C147.95,25.199 146.393,26.101 144.2,26.766C144.665,27.821 145.547,28.349 146.848,28.349C147.684,28.349 148.637,27.987 149.708,27.262C150.774,26.541 151.698,25.596 152.478,24.426C152.701,24.105 152.952,23.944 153.231,23.944ZM146.207,18.954C145.519,18.954 144.94,19.448 144.468,20.434C143.992,21.421 143.754,22.614 143.754,24.013L143.754,24.082C144.85,23.761 145.714,23.279 146.346,22.637C146.978,21.994 147.294,21.249 147.294,20.4C147.294,19.964 147.197,19.615 147.004,19.354C146.807,19.088 146.541,18.954 146.207,18.954ZM182.525,3.091C183.045,3.182 183.402,3.377 183.595,3.676C183.792,3.974 183.89,4.364 183.89,4.846C183.89,6.429 183.203,7.163 181.828,7.048L180.852,6.945C179.756,6.83 178.663,6.738 177.575,6.669C176.489,6.601 175.352,6.566 174.163,6.566L172.909,6.566C172.686,9.962 172.453,13.059 172.212,15.857L177.006,15.754C177.693,15.754 178.152,15.903 178.383,16.202C178.617,16.5 178.734,16.901 178.734,17.406C178.734,18.186 178.548,18.798 178.177,19.244C177.805,19.693 177.275,19.918 176.588,19.918L171.822,19.918L171.654,21.398C171.264,25.183 170.432,27.879 169.157,29.485C167.886,31.09 166.136,31.893 163.906,31.893C162.642,31.893 161.481,31.556 160.422,30.882C159.363,30.203 158.582,29.381 158.081,28.418C157.876,28.028 157.774,27.558 157.774,27.007C157.774,26.456 157.88,25.975 158.092,25.562C158.307,25.149 158.573,24.942 158.889,24.942C159.112,24.942 159.329,25.034 159.541,25.218C159.757,25.401 160.032,25.757 160.366,26.284C161.258,27.73 162.364,28.452 163.683,28.452C164.742,28.452 165.628,27.918 166.342,26.849C167.059,25.784 167.52,24.105 167.724,21.811L167.892,19.918L166.554,19.918C166.126,19.918 165.758,19.769 165.45,19.471C165.145,19.172 164.993,18.748 164.993,18.197C164.993,17.486 165.142,16.94 165.439,16.559C165.736,16.183 166.173,15.995 166.749,15.995C167.269,15.995 167.78,15.984 168.282,15.961C168.505,13.437 168.746,10.374 169.007,6.773C167,7.002 165.587,7.404 164.77,7.977C163.952,8.551 163.544,9.399 163.544,10.524C163.544,11.304 163.729,12.049 164.101,12.76C164.212,12.967 164.268,13.173 164.268,13.38C164.268,13.793 164.082,14.153 163.711,14.46C163.339,14.772 162.921,14.928 162.456,14.928C161.955,14.928 161.527,14.745 161.174,14.378C160.951,14.148 160.738,13.678 160.533,12.967C160.329,12.256 160.227,11.464 160.227,10.592C160.227,7.748 161.41,5.683 163.778,4.398C166.149,3.114 169.61,2.471 174.163,2.471C177.322,2.471 180.109,2.678 182.525,3.091ZM180.964,31.79C180.258,31.79 179.76,31.331 179.47,30.414C179.184,29.496 179.041,28.028 179.041,26.009C179.041,23.027 179.384,20.193 180.072,17.509C180.239,16.844 180.512,16.355 180.891,16.043C181.274,15.736 181.809,15.582 182.497,15.582C182.868,15.582 183.129,15.639 183.277,15.754C183.426,15.869 183.5,16.087 183.5,16.408C183.5,16.775 183.361,17.601 183.082,18.886C182.896,19.803 182.748,20.606 182.636,21.295C182.525,21.983 182.432,22.832 182.357,23.841C182.971,21.868 183.658,20.262 184.42,19.023C185.182,17.784 185.929,16.901 186.661,16.374C187.397,15.846 188.071,15.582 188.684,15.582C189.892,15.582 190.496,16.328 190.496,17.819C190.496,18.117 190.413,18.84 190.245,19.987C190.097,20.905 190.022,21.478 190.022,21.708C190.022,22.51 190.255,22.912 190.719,22.912C191.239,22.912 191.908,22.407 192.726,21.398C192.968,21.1 193.218,20.95 193.479,20.95C193.72,20.95 193.91,21.081 194.047,21.343C194.188,21.609 194.259,21.96 194.259,22.396C194.259,23.245 194.073,23.91 193.702,24.392C193.181,25.057 192.572,25.624 191.873,26.092C191.178,26.564 190.44,26.8 189.66,26.8C188.675,26.8 187.926,26.491 187.413,25.871C186.904,25.252 186.65,24.415 186.65,23.359C186.65,23.015 186.678,22.671 186.733,22.327C186.771,21.868 186.789,21.558 186.789,21.398C186.789,21.031 186.687,20.847 186.483,20.847C186.204,20.847 185.836,21.23 185.379,21.997C184.925,22.767 184.476,23.784 184.03,25.045C183.584,26.307 183.221,27.638 182.943,29.037C182.738,30.115 182.501,30.843 182.229,31.219C181.962,31.6 181.54,31.79 180.964,31.79ZM205.875,21.054C206.117,21.054 206.303,21.203 206.433,21.501C206.563,21.799 206.629,22.178 206.629,22.637C206.629,23.738 206.359,24.392 205.821,24.598C204.705,25.08 203.479,25.355 202.141,25.424C201.787,27.351 201.091,28.895 200.051,30.056C199.01,31.212 197.83,31.79 196.511,31.79C195.396,31.79 194.445,31.458 193.657,30.792C192.865,30.127 192.265,29.244 191.856,28.143C191.448,27.041 191.243,25.848 191.243,24.564C191.243,22.82 191.513,21.265 192.051,19.897C192.59,18.535 193.334,17.468 194.281,16.697C195.229,15.931 196.279,15.548 197.431,15.548C198.843,15.548 199.982,16.149 200.847,17.351C201.709,18.558 202.215,20.044 202.363,21.811C203.237,21.742 204.277,21.513 205.485,21.123C205.635,21.077 205.765,21.054 205.875,21.054ZM196.734,28.143C197.329,28.143 197.845,27.844 198.284,27.248C198.719,26.651 199.01,25.791 199.159,24.667C198.583,24.185 198.143,23.554 197.838,22.774C197.529,21.994 197.375,21.168 197.375,20.297C197.375,19.93 197.403,19.563 197.459,19.195L197.319,19.195C196.576,19.195 195.959,19.636 195.469,20.517C194.974,21.402 194.727,22.648 194.727,24.254C194.727,25.516 194.928,26.479 195.329,27.145C195.727,27.81 196.195,28.143 196.734,28.143ZM206.211,31.79C205.505,31.79 205.009,31.331 204.721,30.414C204.433,29.496 204.287,28.028 204.287,26.009C204.287,23.027 204.631,20.193 205.319,17.509C205.485,16.844 205.761,16.355 206.143,16.043C206.523,15.736 207.055,15.582 207.743,15.582C208.115,15.582 208.375,15.639 208.523,15.754C208.673,15.869 208.747,16.087 208.747,16.408C208.747,16.775 208.607,17.601 208.329,18.886C208.143,19.803 207.995,20.599 207.883,21.274C207.771,21.953 207.679,22.797 207.603,23.807C208.105,22.017 208.705,20.503 209.405,19.264C210.099,18.025 210.815,17.101 211.551,16.491C212.283,15.885 212.973,15.582 213.625,15.582C214.275,15.582 214.735,15.766 215.007,16.133C215.275,16.5 215.409,17.062 215.409,17.819C215.409,18.553 215.231,19.884 214.879,21.811C214.729,22.637 214.627,23.256 214.573,23.669C215.501,20.847 216.533,18.794 217.665,17.509C218.799,16.224 219.859,15.582 220.843,15.582C222.051,15.582 222.655,16.328 222.655,17.819C222.655,18.714 222.451,20.331 222.041,22.671C221.689,24.667 221.513,25.986 221.513,26.628C221.513,27.546 221.781,28.005 222.321,28.005C222.693,28.005 223.135,27.723 223.647,27.158C224.157,26.599 224.839,25.688 225.693,24.426C225.917,24.105 226.167,23.944 226.445,23.944C226.687,23.944 226.879,24.082 227.019,24.357C227.157,24.633 227.227,25.011 227.227,25.493C227.227,26.41 227.049,27.122 226.697,27.626C225.897,28.842 225.039,29.84 224.121,30.62C223.199,31.4 222.153,31.79 220.983,31.79C220.035,31.79 219.319,31.451 218.837,30.772C218.353,30.097 218.111,29.118 218.111,27.833C218.111,27.19 218.241,26.043 218.503,24.392C218.743,22.946 218.865,21.948 218.865,21.398C218.865,21.031 218.763,20.847 218.557,20.847C218.317,20.847 217.973,21.23 217.527,21.997C217.081,22.767 216.635,23.784 216.189,25.045C215.743,26.307 215.381,27.638 215.101,29.037C214.897,30.138 214.661,30.873 214.393,31.24C214.123,31.607 213.689,31.79 213.095,31.79C212.481,31.79 212.023,31.428 211.717,30.703C211.409,29.982 211.255,29.106 211.255,28.074C211.255,27.202 211.349,25.94 211.533,24.288C211.683,22.82 211.757,21.857 211.757,21.398C211.757,21.031 211.655,20.847 211.451,20.847C211.171,20.847 210.819,21.26 210.391,22.086C209.963,22.912 209.551,23.967 209.153,25.252C208.753,26.537 208.431,27.798 208.189,29.037C207.985,30.115 207.749,30.843 207.481,31.219C207.209,31.6 206.787,31.79 206.211,31.79ZM254.987,34.922C255.173,34.922 255.315,35.043 255.417,35.286C255.521,35.525 255.573,35.839 255.573,36.229C255.573,36.963 255.415,37.686 255.099,38.397C254.467,39.82 253.635,40.916 252.601,41.687C251.571,42.453 250.519,42.836 249.441,42.836C248.345,42.836 247.425,42.625 246.681,42.203C245.937,41.776 245.307,41.146 244.785,40.311C244.265,39.471 243.763,38.363 243.281,36.986C242.779,35.564 242.365,34.504 242.037,33.807C241.715,33.105 241.377,32.593 241.023,32.272C240.669,31.951 240.215,31.721 239.657,31.584C237.595,31.079 235.935,29.817 234.679,27.798C233.427,25.78 232.801,23.176 232.801,19.987C232.801,16.5 233.315,13.426 234.345,10.764C235.377,8.103 236.781,6.05 238.553,4.605C240.329,3.159 242.295,2.437 244.451,2.437C246.105,2.437 247.595,2.896 248.923,3.813C250.253,4.731 251.307,6.08 252.089,7.86C252.869,9.636 253.259,11.762 253.259,14.24C253.259,17.131 252.905,19.735 252.199,22.052C251.493,24.369 250.519,26.296 249.273,27.833C248.029,29.37 246.597,30.46 244.981,31.102C245.445,31.423 245.849,31.893 246.191,32.513C246.537,33.132 246.905,34.027 247.295,35.197C247.721,36.482 248.181,37.399 248.671,37.95C249.165,38.5 249.775,38.776 250.499,38.776C251.113,38.776 251.707,38.519 252.283,38.005C252.859,37.486 253.509,36.642 254.235,35.472C254.457,35.105 254.709,34.922 254.987,34.922ZM241.887,27.73C243.337,27.73 244.613,27.179 245.717,26.078C246.825,24.977 247.675,23.444 248.269,21.48C248.865,19.521 249.161,17.303 249.161,14.825C249.161,12.095 248.697,10.023 247.769,8.61C246.839,7.202 245.641,6.497 244.173,6.497C242.761,6.497 241.501,7.053 240.393,8.163C239.289,9.278 238.431,10.81 237.817,12.76C237.205,14.71 236.897,16.924 236.897,19.402C236.897,22.132 237.363,24.204 238.291,25.617C239.221,27.025 240.419,27.73 241.887,27.73ZM257.657,31.79C256.821,31.79 256.139,31.313 255.611,30.359C255.079,29.409 254.815,28.223 254.815,26.8C254.815,25.08 254.907,23.502 255.093,22.065C255.279,20.634 255.585,19.115 256.013,17.509C256.199,16.821 256.459,16.328 256.793,16.029C257.127,15.731 257.657,15.582 258.381,15.582C258.791,15.582 259.075,15.662 259.235,15.823C259.391,15.984 259.469,16.224 259.469,16.546C259.469,16.729 259.367,17.349 259.163,18.404C258.977,19.253 258.827,20.021 258.717,20.71C258.345,23.118 258.159,24.724 258.159,25.527C258.159,26.009 258.205,26.346 258.299,26.539C258.391,26.736 258.539,26.835 258.745,26.835C259.023,26.835 259.373,26.491 259.793,25.803C260.209,25.114 260.655,24.07 261.131,22.671C261.603,21.272 262.061,19.551 262.507,17.509C262.655,16.821 262.885,16.328 263.193,16.029C263.497,15.731 263.957,15.582 264.569,15.582C264.997,15.582 265.295,15.644 265.461,15.768C265.629,15.896 265.713,16.133 265.713,16.477C265.713,17.05 265.481,18.622 265.015,21.191C264.495,24.128 264.235,25.94 264.235,26.628C264.235,27.064 264.309,27.402 264.459,27.64C264.607,27.883 264.801,28.005 265.043,28.005C265.415,28.005 265.857,27.723 266.371,27.158C266.879,26.599 267.561,25.688 268.417,24.426C268.639,24.105 268.889,23.944 269.169,23.944C269.411,23.944 269.601,24.082 269.743,24.357C269.881,24.633 269.949,25.011 269.949,25.493C269.949,26.41 269.773,27.122 269.419,27.626C268.621,28.842 267.761,29.84 266.845,30.62C265.923,31.4 264.877,31.79 263.705,31.79C262.813,31.79 262.159,31.366 261.743,30.517C261.323,29.668 261.113,28.475 261.113,26.938C260.797,28.498 260.323,29.696 259.691,30.531C259.061,31.37 258.381,31.79 257.657,31.79ZM271.119,31.79C269.967,31.79 269.047,31.274 268.361,30.242C267.673,29.209 267.329,27.856 267.329,26.181C267.329,24.346 267.673,22.607 268.361,20.964C269.047,19.326 269.963,18.007 271.109,17.007C272.249,16.011 273.461,15.513 274.743,15.513C275.151,15.513 275.427,15.61 275.569,15.802C275.705,16 275.821,16.351 275.913,16.855C276.303,16.764 276.713,16.718 277.141,16.718C278.051,16.718 278.505,17.119 278.505,17.922C278.505,18.404 278.367,19.551 278.087,21.363C277.661,24.002 277.447,25.837 277.447,26.869C277.447,27.213 277.517,27.489 277.659,27.695C277.797,27.902 277.977,28.005 278.199,28.005C278.553,28.005 278.979,27.723 279.481,27.158C279.983,26.599 280.661,25.688 281.517,24.426C281.739,24.105 281.989,23.944 282.269,23.944C282.511,23.944 282.701,24.082 282.843,24.357C282.981,24.633 283.049,25.011 283.049,25.493C283.049,26.41 282.873,27.122 282.519,27.626C281.757,28.796 280.949,29.783 280.095,30.586C279.239,31.389 278.413,31.79 277.613,31.79C277.001,31.79 276.439,31.531 275.931,31.012C275.417,30.499 275.031,29.794 274.771,28.9C273.805,30.827 272.587,31.79 271.119,31.79ZM272.123,28.315C272.531,28.315 272.923,28.016 273.293,27.42C273.665,26.823 273.935,26.032 274.103,25.045L275.133,18.714C274.353,18.737 273.633,19.097 272.975,19.794C272.315,20.496 271.789,21.421 271.399,22.568C271.009,23.715 270.813,24.931 270.813,26.215C270.813,26.927 270.931,27.454 271.165,27.798C271.395,28.143 271.715,28.315 272.123,28.315ZM291.355,23.944C291.597,23.944 291.787,24.082 291.923,24.357C292.065,24.633 292.135,25.011 292.135,25.493C292.135,26.41 291.959,27.122 291.605,27.626C290.807,28.842 289.937,29.84 288.997,30.62C288.061,31.4 286.997,31.79 285.809,31.79C284.173,31.79 282.959,30.873 282.169,29.037C281.381,27.202 280.987,24.828 280.987,21.914C280.987,19.115 281.279,15.926 281.861,12.347C282.449,8.769 283.313,5.694 284.453,3.125C285.599,0.556 286.961,-0.729 288.539,-0.729C289.431,-0.729 290.133,-0.22 290.641,0.799C291.155,1.822 291.411,3.286 291.411,5.19C291.411,7.92 290.797,11.086 289.571,14.687C288.345,18.289 286.681,21.857 284.583,25.39C284.713,26.33 284.925,27 285.223,27.399C285.521,27.803 285.911,28.005 286.393,28.005C287.155,28.005 287.825,27.734 288.401,27.193C288.977,26.656 289.711,25.734 290.603,24.426C290.825,24.105 291.077,23.944 291.355,23.944ZM287.927,2.678C287.499,2.678 287.017,3.63 286.477,5.534C285.939,7.438 285.465,9.801 285.055,12.623C284.647,15.444 284.425,18.152 284.387,20.744C285.707,18.06 286.757,15.369 287.537,12.671C288.317,9.978 288.707,7.518 288.707,5.293C288.707,3.549 288.447,2.678 287.927,2.678ZM293.529,13.311C292.749,13.311 292.163,13.086 291.773,12.636C291.383,12.191 291.187,11.567 291.187,10.764C291.187,9.962 291.443,9.289 291.951,8.748C292.465,8.211 293.101,7.943 293.863,7.943C294.551,7.943 295.109,8.149 295.535,8.562C295.963,8.975 296.177,9.56 296.177,10.317C296.177,11.235 295.935,11.962 295.453,12.499C294.969,13.04 294.329,13.311 293.529,13.311ZM293.307,31.79C292.099,31.79 291.219,31.263 290.669,30.207C290.123,29.152 289.849,27.753 289.849,26.009C289.849,24.977 289.955,23.651 290.167,22.031C290.383,20.416 290.659,18.909 290.993,17.509C291.159,16.775 291.383,16.27 291.661,15.995C291.941,15.72 292.387,15.582 292.999,15.582C293.947,15.582 294.421,15.972 294.421,16.752C294.421,17.326 294.245,18.656 293.891,20.744C293.445,23.268 293.223,24.977 293.223,25.871C293.223,26.56 293.297,27.087 293.445,27.454C293.595,27.821 293.845,28.005 294.199,28.005C294.533,28.005 294.951,27.718 295.453,27.145C295.953,26.571 296.623,25.665 297.459,24.426C297.683,24.105 297.933,23.944 298.211,23.944C298.453,23.944 298.643,24.082 298.781,24.357C298.921,24.633 298.993,25.011 298.993,25.493C298.993,26.41 298.815,27.122 298.463,27.626C296.623,30.402 294.905,31.79 293.307,31.79ZM307.571,21.983C308.091,21.983 308.351,22.465 308.351,23.428C308.351,25.24 307.199,26.147 304.895,26.147C304.449,26.147 303.809,26.043 302.973,25.837C303.213,27.259 303.415,28.835 303.575,30.565C303.731,32.299 303.809,33.729 303.809,34.853C303.809,37.33 303.483,39.223 302.833,40.531C302.183,41.838 301.327,42.492 300.269,42.492C298.931,42.492 297.979,41.322 297.415,38.982C296.845,36.642 296.561,33.109 296.561,28.383C296.561,23.979 296.949,19.51 297.721,14.976C298.491,10.448 299.549,6.697 300.899,3.724C302.243,0.755 303.725,-0.729 305.341,-0.729C306.215,-0.729 306.899,-0.247 307.393,0.716C307.883,1.68 308.129,2.976 308.129,4.605C308.129,9.996 305.517,15.869 300.297,22.224C300.111,24.472 300.017,26.445 300.017,28.143C300.017,30.505 300.083,32.933 300.213,35.424C300.343,37.911 300.557,39.154 300.853,39.154C301.411,39.154 301.691,37.961 301.691,35.575C301.691,33.786 301.593,32.054 301.401,30.379C301.203,28.705 300.937,26.938 300.603,25.08C300.585,24.782 300.665,24.403 300.843,23.944C301.017,23.485 301.235,23.084 301.495,22.74C301.755,22.396 301.987,22.224 302.191,22.224C302.563,22.224 303.009,22.247 303.529,22.293C303.697,22.315 303.893,22.327 304.115,22.327C304.859,22.327 305.685,22.247 306.595,22.086C306.745,22.063 306.903,22.04 307.069,22.017C307.237,21.994 307.405,21.983 307.571,21.983ZM304.757,2.678C304.421,2.678 304.009,3.377 303.519,4.777C303.025,6.176 302.535,8.028 302.053,10.331C301.569,12.639 301.151,15.077 300.799,17.647C302.285,15.559 303.427,13.384 304.227,11.122C305.025,8.865 305.435,6.75 305.453,4.777C305.453,3.377 305.221,2.678 304.757,2.678ZM309.885,13.311C309.105,13.311 308.519,13.086 308.129,12.636C307.739,12.191 307.543,11.567 307.543,10.764C307.543,9.962 307.797,9.289 308.307,8.748C308.819,8.211 309.457,7.943 310.219,7.943C310.907,7.943 311.465,8.149 311.891,8.562C312.319,8.975 312.533,9.56 312.533,10.317C312.533,11.235 312.291,11.962 311.807,12.499C311.325,13.04 310.683,13.311 309.885,13.311ZM309.661,31.79C308.453,31.79 307.575,31.263 307.025,30.207C306.479,29.152 306.205,27.753 306.205,26.009C306.205,24.977 306.311,23.651 306.523,22.031C306.739,20.416 307.013,18.909 307.349,17.509C307.515,16.775 307.739,16.27 308.017,15.995C308.295,15.72 308.741,15.582 309.355,15.582C310.303,15.582 310.777,15.972 310.777,16.752C310.777,17.326 310.601,18.656 310.247,20.744C309.801,23.268 309.579,24.977 309.579,25.871C309.579,26.56 309.653,27.087 309.801,27.454C309.949,27.821 310.201,28.005 310.553,28.005C310.889,28.005 311.307,27.718 311.807,27.145C312.309,26.571 312.979,25.665 313.815,24.426C314.037,24.105 314.289,23.944 314.567,23.944C314.809,23.944 314.999,24.082 315.135,24.357C315.277,24.633 315.347,25.011 315.347,25.493C315.347,26.41 315.171,27.122 314.819,27.626C312.979,30.402 311.259,31.79 309.661,31.79ZM325.521,23.944C325.763,23.944 325.953,24.082 326.089,24.357C326.231,24.633 326.301,25.011 326.301,25.493C326.301,26.41 326.125,27.122 325.771,27.626C325.085,28.659 324.113,29.611 322.857,30.483C321.605,31.354 320.263,31.79 318.831,31.79C316.881,31.79 315.367,31.136 314.289,29.829C313.211,28.521 312.671,26.732 312.671,24.46C312.671,22.878 312.941,21.405 313.481,20.042C314.019,18.675 314.767,17.589 315.721,16.787C316.679,15.984 317.763,15.582 318.971,15.582C320.049,15.582 320.913,15.977 321.563,16.766C322.213,17.56 322.539,18.633 322.539,19.987C322.539,21.57 322.077,22.928 321.157,24.061C320.239,25.199 318.683,26.101 316.491,26.766C316.955,27.821 317.837,28.349 319.139,28.349C319.975,28.349 320.925,27.987 321.993,27.262C323.063,26.541 323.989,25.596 324.769,24.426C324.991,24.105 325.243,23.944 325.521,23.944ZM318.497,18.954C317.809,18.954 317.229,19.448 316.753,20.434C316.281,21.421 316.045,22.614 316.045,24.013L316.045,24.082C317.141,23.761 318.005,23.279 318.637,22.637C319.269,21.994 319.585,21.249 319.585,20.4C319.585,19.964 319.485,19.615 319.289,19.354C319.095,19.088 318.831,18.954 318.497,18.954ZM339.731,23.944C339.973,23.944 340.163,24.082 340.305,24.357C340.443,24.633 340.511,25.011 340.511,25.493C340.511,26.41 340.335,27.122 339.981,27.626C339.219,28.773 338.383,29.753 337.473,30.565C336.563,31.382 335.661,31.79 334.769,31.79C333.357,31.79 332.279,30.769 331.535,28.728C330.755,29.943 330.073,30.758 329.491,31.171C328.903,31.584 328.219,31.79 327.439,31.79C326.305,31.79 325.373,31.269 324.641,30.228C323.905,29.182 323.537,27.821 323.537,26.147C323.537,24.311 323.853,22.607 324.485,21.033C325.117,19.464 325.985,18.179 327.093,17.179C328.197,16.183 329.437,15.594 330.811,15.41C331.165,10.959 331.839,7.156 332.835,3.999C333.827,0.847 335.131,-0.729 336.749,-0.729C337.547,-0.729 338.213,-0.282 338.743,0.613C339.271,1.508 339.535,2.861 339.535,4.674C339.535,7.243 339.025,10.248 338.003,13.689C336.981,17.131 335.615,20.664 333.905,24.288C333.979,25.619 334.143,26.571 334.395,27.145C334.645,27.718 334.965,28.005 335.355,28.005C335.857,28.005 336.367,27.73 336.887,27.179C337.407,26.628 338.105,25.711 338.977,24.426C339.201,24.105 339.451,23.944 339.731,23.944ZM336.441,2.643C336.089,2.643 335.735,3.416 335.383,4.963C335.029,6.513 334.729,8.539 334.479,11.04C334.227,13.54 334.045,16.156 333.933,18.886C336.015,13.288 337.055,8.792 337.055,5.396C337.055,4.524 336.995,3.848 336.877,3.366C336.753,2.884 336.609,2.643 336.441,2.643ZM328.415,28.315C328.767,28.315 329.121,28.136 329.473,27.778C329.827,27.424 330.273,26.766 330.811,25.803C330.625,24.564 330.533,23.176 330.533,21.639C330.533,21.088 330.551,20.193 330.589,18.954C329.567,19.345 328.717,20.187 328.041,21.48C327.361,22.779 327.021,24.22 327.021,25.803C327.021,27.477 327.485,28.315 328.415,28.315ZM365.345,25.355C365.625,25.218 365.857,25.149 366.043,25.149C366.339,25.149 366.563,25.286 366.711,25.562C366.859,25.837 366.935,26.193 366.935,26.628C366.935,27.317 366.799,27.902 366.527,28.383C366.259,28.865 365.801,29.301 365.151,29.691C364.053,30.333 362.633,30.843 360.885,31.219C359.139,31.6 357.421,31.79 355.729,31.79C353.387,31.79 351.427,31.462 349.849,30.806C348.269,30.154 347.093,29.255 346.319,28.108C345.551,26.961 345.165,25.665 345.165,24.22C345.165,22.247 345.681,20.567 346.709,19.182C347.743,17.791 349.263,16.787 351.269,16.167C350.173,15.777 349.331,15.089 348.745,14.102C348.161,13.116 347.869,12.015 347.869,10.799C347.869,9.147 348.291,7.683 349.135,6.408C349.981,5.137 351.121,4.157 352.551,3.469C353.983,2.781 355.553,2.437 357.263,2.437C359.567,2.437 361.295,3.049 362.447,4.274C363.599,5.504 364.175,7.094 364.175,9.044C364.175,10.397 363.973,11.492 363.573,12.327C363.175,13.166 362.605,13.586 361.861,13.586C361.341,13.586 360.933,13.442 360.635,13.153C360.337,12.868 360.189,12.439 360.189,11.866C360.189,11.476 360.235,11.051 360.329,10.592C360.421,9.835 360.467,9.319 360.467,9.044C360.467,8.218 360.217,7.546 359.715,7.027C359.213,6.513 358.377,6.257 357.207,6.257C355.627,6.257 354.363,6.669 353.415,7.495C352.469,8.321 351.995,9.434 351.995,10.833C351.995,11.912 352.351,12.799 353.065,13.497C353.781,14.199 354.949,14.584 356.565,14.653C356.975,14.676 357.263,14.791 357.429,14.997C357.597,15.204 357.681,15.548 357.681,16.029C357.681,17.544 357.123,18.312 356.009,18.335C354.465,18.381 353.187,18.645 352.173,19.127C351.161,19.608 350.427,20.221 349.971,20.964C349.517,21.712 349.291,22.51 349.291,23.359C349.291,24.782 349.829,25.853 350.907,26.573C351.985,27.298 353.695,27.661 356.035,27.661C357.579,27.661 359.207,27.436 360.925,26.986C362.645,26.541 364.119,25.998 365.345,25.355ZM380.981,23.944C381.223,23.944 381.413,24.082 381.551,24.357C381.691,24.633 381.763,25.011 381.763,25.493C381.763,26.41 381.585,27.122 381.233,27.626C380.415,28.819 379.517,29.81 378.541,30.6C377.567,31.393 376.467,31.79 375.241,31.79C374.293,31.79 373.451,31.572 372.715,31.136C371.983,30.7 371.403,30.081 370.975,29.278C369.917,30.93 368.663,31.756 367.213,31.756C366.191,31.756 365.383,31.389 364.787,30.655C364.193,29.92 363.895,28.945 363.895,27.73C363.895,26.583 364.109,25.653 364.537,24.942C364.965,24.231 365.569,23.875 366.349,23.875C367.017,23.875 367.353,24.185 367.353,24.805C367.353,24.965 367.333,25.252 367.297,25.665C367.241,26.491 367.213,26.961 367.213,27.076C367.213,27.764 367.455,28.108 367.937,28.108C368.291,28.108 368.629,27.849 368.951,27.33C369.279,26.817 369.549,26.112 369.761,25.218C369.975,24.323 370.083,23.336 370.083,22.258C370.083,21.432 369.999,20.737 369.833,20.173C369.665,19.613 369.461,19.333 369.219,19.333C369.015,19.333 368.867,19.397 368.773,19.526C368.681,19.65 368.587,19.861 368.495,20.159C368.383,20.526 368.235,20.817 368.049,21.033C367.863,21.253 367.537,21.363 367.073,21.363C366.665,21.363 366.339,21.184 366.097,20.827C365.857,20.473 365.735,19.93 365.735,19.195C365.735,18.025 366.023,17.108 366.599,16.442C367.175,15.777 367.919,15.444 368.829,15.444C369.609,15.444 370.315,15.678 370.947,16.146C371.579,16.619 372.063,17.303 372.397,18.197C372.955,17.28 373.581,16.592 374.275,16.133C374.975,15.674 375.659,15.444 376.327,15.444C377.051,15.444 377.603,15.651 377.983,16.064C378.365,16.477 378.557,17.142 378.557,18.06C378.557,19.092 378.399,19.9 378.083,20.482C377.767,21.07 377.387,21.363 376.941,21.363C376.531,21.363 376.253,21.26 376.105,21.054C375.955,20.847 375.843,20.549 375.769,20.159C375.733,19.884 375.677,19.677 375.603,19.54C375.527,19.402 375.397,19.333 375.213,19.333C374.989,19.333 374.751,19.59 374.499,20.104C374.249,20.622 374.035,21.306 373.857,22.155C373.683,23.004 373.595,23.887 373.595,24.805C373.595,25.883 373.803,26.713 374.219,27.296C374.639,27.883 375.213,28.177 375.937,28.177C376.661,28.177 377.343,27.872 377.983,27.262C378.625,26.656 379.375,25.711 380.229,24.426C380.453,24.105 380.703,23.944 380.981,23.944ZM394.941,23.944C395.181,23.944 395.373,24.082 395.515,24.357C395.651,24.633 395.721,25.011 395.721,25.493C395.721,26.41 395.545,27.122 395.191,27.626C394.393,28.842 393.533,29.84 392.615,30.62C391.695,31.4 390.647,31.79 389.477,31.79C388.493,31.79 387.693,31.354 387.081,30.483C386.021,31.331 384.915,31.767 383.763,31.79C383.521,36.218 382.973,39.918 382.119,42.891C381.265,45.86 380.009,47.344 378.357,47.344C377.353,47.344 376.609,46.897 376.127,46.002C375.643,45.108 375.401,43.869 375.401,42.286C375.401,40.038 375.819,37.418 376.655,34.426C377.493,31.43 378.783,28.131 380.531,24.529C380.531,21.18 380.511,18.851 380.475,17.544C380.455,16.878 380.669,16.351 381.115,15.961C381.561,15.571 382.119,15.376 382.787,15.376C383.179,15.376 383.463,15.472 383.641,15.665C383.815,15.862 383.913,16.247 383.931,16.821C383.931,17.394 383.939,17.819 383.959,18.094C384.553,17.177 385.139,16.516 385.715,16.112C386.291,15.713 386.903,15.513 387.555,15.513C388.595,15.513 389.445,16.029 390.107,17.062C390.765,18.094 391.093,19.448 391.093,21.123C391.093,22.338 390.935,23.52 390.621,24.667C390.305,25.814 389.867,26.858 389.311,27.798C389.701,27.936 390.025,28.005 390.285,28.005C390.899,28.005 391.485,27.73 392.041,27.179C392.599,26.628 393.315,25.711 394.187,24.426C394.411,24.105 394.661,23.944 394.941,23.944ZM383.903,28.487C384.571,28.303 385.191,27.849 385.759,27.124C386.323,26.404 386.773,25.509 387.109,24.44C387.443,23.375 387.609,22.258 387.609,21.088C387.609,20.4 387.499,19.879 387.275,19.526C387.053,19.168 386.755,18.989 386.383,18.989C385.715,18.989 384.907,19.861 383.959,21.604C383.939,22.614 383.931,24.093 383.931,26.043C383.931,27.099 383.921,27.913 383.903,28.487ZM378.579,43.972C379.081,43.972 379.499,42.625 379.833,39.932C380.167,37.234 380.381,33.878 380.475,29.863C379.675,32.157 379.043,34.348 378.579,36.436C378.115,38.523 377.883,40.278 377.883,41.701C377.883,42.435 377.953,42.997 378.095,43.387C378.231,43.777 378.393,43.972 378.579,43.972ZM405.895,23.944C406.135,23.944 406.327,24.082 406.469,24.357C406.605,24.633 406.675,25.011 406.675,25.493C406.675,26.41 406.499,27.122 406.145,27.626C405.457,28.659 404.487,29.611 403.235,30.483C401.979,31.354 400.635,31.79 399.205,31.79C397.253,31.79 395.739,31.136 394.661,29.829C393.583,28.521 393.045,26.732 393.045,24.46C393.045,22.878 393.315,21.405 393.853,20.042C394.393,18.675 395.141,17.589 396.099,16.787C397.055,15.984 398.137,15.582 399.345,15.582C400.421,15.582 401.285,15.977 401.937,16.766C402.587,17.56 402.911,18.633 402.911,19.987C402.911,21.57 402.453,22.928 401.535,24.061C400.613,25.199 399.057,26.101 396.863,26.766C397.327,27.821 398.211,28.349 399.511,28.349C400.347,28.349 401.301,27.987 402.371,27.262C403.437,26.541 404.361,25.596 405.141,24.426C405.365,24.105 405.615,23.944 405.895,23.944ZM398.871,18.954C398.183,18.954 397.603,19.448 397.131,20.434C396.655,21.421 396.417,22.614 396.417,24.013L396.417,24.082C397.513,23.761 398.377,23.279 399.009,22.637C399.641,21.994 399.957,21.249 399.957,20.4C399.957,19.964 399.861,19.615 399.667,19.354C399.471,19.088 399.205,18.954 398.871,18.954ZM406.395,31.79C405.689,31.79 405.191,31.331 404.901,30.414C404.615,29.496 404.473,28.028 404.473,26.009C404.473,23.027 404.817,20.193 405.503,17.509C405.671,16.844 405.945,16.355 406.323,16.043C406.707,15.736 407.241,15.582 407.929,15.582C408.301,15.582 408.561,15.639 408.709,15.754C408.857,15.869 408.933,16.087 408.933,16.408C408.933,16.775 408.793,17.601 408.515,18.886C408.329,19.803 408.179,20.606 408.069,21.295C407.957,21.983 407.863,22.832 407.789,23.841C408.403,21.868 409.091,20.262 409.853,19.023C410.613,17.784 411.361,16.901 412.093,16.374C412.829,15.846 413.503,15.582 414.117,15.582C415.325,15.582 415.929,16.328 415.929,17.819C415.929,18.117 415.845,18.84 415.677,19.987C415.529,20.905 415.455,21.478 415.455,21.708C415.455,22.51 415.687,22.912 416.151,22.912C416.671,22.912 417.341,22.407 418.159,21.398C418.399,21.1 418.651,20.95 418.911,20.95C419.153,20.95 419.341,21.081 419.479,21.343C419.621,21.609 419.691,21.96 419.691,22.396C419.691,23.245 419.505,23.91 419.133,24.392C418.613,25.057 418.003,25.624 417.305,26.092C416.611,26.564 415.873,26.8 415.093,26.8C414.107,26.8 413.359,26.491 412.845,25.871C412.337,25.252 412.081,24.415 412.081,23.359C412.081,23.015 412.109,22.671 412.165,22.327C412.203,21.868 412.221,21.558 412.221,21.398C412.221,21.031 412.119,20.847 411.915,20.847C411.635,20.847 411.267,21.23 410.811,21.997C410.357,22.767 409.907,23.784 409.461,25.045C409.015,26.307 408.653,27.638 408.375,29.037C408.171,30.115 407.933,30.843 407.661,31.219C407.393,31.6 406.971,31.79 406.395,31.79ZM430.367,23.944C430.607,23.944 430.797,24.082 430.935,24.357C431.075,24.633 431.147,25.011 431.147,25.493C431.147,26.41 430.971,27.122 430.617,27.626C429.817,28.842 428.945,29.84 427.997,30.62C427.049,31.4 425.963,31.79 424.735,31.79C420.945,31.79 419.049,28.498 419.049,21.914C419.049,20.905 419.077,19.884 419.133,18.851L418.047,18.851C417.489,18.851 417.111,18.725 416.915,18.473C416.721,18.22 416.625,17.819 416.625,17.268C416.625,15.984 417.043,15.341 417.879,15.341L419.467,15.341C419.783,12.818 420.267,10.512 420.917,8.424C421.567,6.337 422.351,4.674 423.269,3.435C424.191,2.196 425.181,1.577 426.241,1.577C427.021,1.577 427.635,2.001 428.081,2.85C428.527,3.699 428.749,4.765 428.749,6.05C428.749,9.606 427.541,12.703 425.127,15.341L428.247,15.341C428.545,15.341 428.759,15.422 428.889,15.582C429.019,15.743 429.083,16.041 429.083,16.477C429.083,18.06 428.035,18.851 425.935,18.851L422.533,18.851C422.497,19.998 422.479,20.893 422.479,21.535C422.479,23.921 422.705,25.596 423.159,26.56C423.615,27.523 424.337,28.005 425.321,28.005C426.121,28.005 426.827,27.707 427.439,27.11C428.053,26.514 428.777,25.619 429.613,24.426C429.837,24.105 430.087,23.944 430.367,23.944ZM425.489,4.88C425.209,4.88 424.897,5.309 424.551,6.167C424.211,7.03 423.885,8.223 423.577,9.746C423.271,11.274 423.017,12.967 422.813,14.825C423.909,13.655 424.731,12.341 425.277,10.881C425.827,9.427 426.101,8.103 426.101,6.91C426.101,5.557 425.897,4.88 425.489,4.88ZM434.067,32.547C433.101,32.547 432.363,32.272 431.855,31.721C431.341,31.171 431.085,30.551 431.085,29.863C431.085,29.267 431.261,28.75 431.615,28.315C431.967,27.879 432.489,27.661 433.175,27.661C433.417,27.661 433.701,27.688 434.029,27.743C434.351,27.803 434.597,27.844 434.765,27.867C434.745,27.271 434.639,26.709 434.447,26.181C434.249,25.653 434.003,25.142 433.705,24.646C433.407,24.155 433.129,23.726 432.869,23.359C432.293,24.713 431.723,25.837 431.157,26.732C430.589,27.626 429.971,28.475 429.301,29.278C428.967,29.691 428.613,29.898 428.243,29.898C427.945,29.898 427.703,29.764 427.517,29.498C427.331,29.237 427.239,28.911 427.239,28.521C427.239,28.062 427.369,27.638 427.629,27.248L427.991,26.697C429.013,25.137 429.785,23.853 430.305,22.843C430.621,22.178 430.993,21.288 431.419,20.173C431.847,19.062 432.265,17.911 432.673,16.718C433.027,15.708 433.761,15.204 434.875,15.204C435.397,15.204 435.759,15.261 435.963,15.376C436.167,15.49 436.269,15.674 436.269,15.926C436.269,16.064 436.233,16.282 436.159,16.58C436.083,16.878 435.981,17.177 435.851,17.475C435.517,18.301 435.349,19 435.349,19.574C435.349,19.918 435.449,20.297 435.645,20.71C435.839,21.123 436.139,21.639 436.549,22.258C437.143,23.222 437.595,24.041 437.903,24.715C438.207,25.394 438.359,26.135 438.359,26.938C438.359,27.168 438.341,27.489 438.305,27.902C439.215,27.466 440.283,26.307 441.509,24.426C441.733,24.105 441.983,23.944 442.263,23.944C442.503,23.944 442.695,24.082 442.837,24.357C442.973,24.633 443.043,25.011 443.043,25.493C443.043,26.365 442.867,27.076 442.513,27.626C441.583,29.049 440.697,30.017 439.853,30.531C439.007,31.049 437.961,31.331 436.715,31.377C435.973,32.157 435.089,32.547 434.067,32.547Z" fill="#0C0150"/>
</svg>
