<svg width="578" height="422" viewBox="0 0 578 422" fill="none" xmlns="http://www.w3.org/2000/svg" xmlns:xlink="http://www.w3.org/1999/xlink">
<path d="M559.778,356.601C557.173,335.97 544.189,315.642 524.209,308.928C532.089,330.163 532.087,353.459 524.204,374.693C521.134,382.871 516.855,391.652 519.742,399.895C521.539,405.023 525.935,408.947 530.848,411.401C535.762,413.854 541.216,415.024 546.601,416.17L547.66,417.033C556.209,398.023 562.384,377.232 559.778,356.601Z" fill="#F0F0F0"/>
<path d="M524.011,311.318C535.646,324.157 542.878,340.279 544.679,357.396C545.133,361.074 544.996,364.8 544.272,368.435C543.45,371.955 541.687,375.193 539.164,377.815C536.863,380.305 534.215,382.59 532.568,385.588C531.748,387.136 531.27,388.836 531.164,390.578C531.058,392.32 531.327,394.064 531.954,395.696C533.408,399.804 536.274,403.151 539.192,406.329C542.433,409.858 545.855,413.472 547.232,418.15C547.399,418.717 548.282,418.429 548.116,417.863C545.719,409.724 537.697,405.101 533.871,397.771C532.086,394.35 531.336,390.379 533.01,386.769C534.473,383.612 537.201,381.253 539.554,378.751C542.053,376.229 543.887,373.144 544.895,369.763C545.805,366.176 546.087,362.461 545.732,358.78C545.065,350.48 543.077,342.334 539.841,334.642C536.197,325.842 531.051,317.722 524.626,310.631C524.228,310.192 523.615,310.882 524.011,311.318Z" fill="#FFFFFF"/>
<path d="M544.429,351.851C547.304,351.164 549.837,349.492 551.576,347.135C553.316,344.778 554.147,341.889 553.923,338.984C553.876,338.396 552.946,338.441 552.994,339.029C553.208,341.734 552.432,344.425 550.808,346.617C549.184,348.809 546.818,350.356 544.137,350.981C543.554,351.117 543.849,351.987 544.429,351.851Z" fill="#FFFFFF"/>
<path d="M540.5,376.703C535.308,373.65 531.474,368.781 529.764,363.068C529.596,362.502 528.712,362.79 528.881,363.355C530.671,369.297 534.671,374.356 540.082,377.522C540.598,377.823 541.014,377.003 540.5,376.703Z" fill="#FFFFFF"/>
<path d="M535.334,326.71C534.278,327.205 533.113,327.433 531.945,327.374C530.777,327.316 529.643,326.973 528.643,326.376C528.131,326.068 527.716,326.889 528.224,327.194C529.332,327.849 530.586,328.226 531.876,328.294C533.166,328.361 534.454,328.116 535.625,327.58C535.74,327.539 535.835,327.456 535.89,327.349C535.945,327.241 535.956,327.117 535.921,327.002C535.882,326.887 535.798,326.792 535.688,326.737C535.578,326.682 535.451,326.673 535.334,326.71Z" fill="#FFFFFF"/>
<path d="M463.307,347.778C463.621,347.979 463.935,348.18 464.249,348.389C468.457,351.113 472.433,354.17 476.138,357.529C476.429,357.785 476.72,358.048 477.002,358.31C485.841,366.497 493.06,376.228 498.291,387.009C500.369,391.301 502.112,395.742 503.506,400.295C505.43,406.582 507.008,413.549 510.817,418.692C511.208,419.233 511.633,419.75 512.089,420.239L546.509,420.239C546.587,420.2 546.666,420.169 546.744,420.131L548.118,420.192C548.063,419.953 548.001,419.705 547.945,419.465C547.914,419.326 547.875,419.187 547.843,419.048C547.82,418.955 547.796,418.862 547.781,418.777C547.773,418.746 547.765,418.715 547.757,418.692C547.741,418.607 547.718,418.53 547.702,418.452C547.356,417.068 547.001,415.684 546.634,414.3C546.634,414.292 546.634,414.292 546.626,414.284C543.807,403.744 540.069,393.342 534.847,383.83C534.69,383.544 534.533,383.25 534.36,382.964C531.982,378.69 529.253,374.613 526.201,370.777C524.522,368.681 522.738,366.67 520.853,364.752C515.973,359.806 510.334,355.646 504.142,352.425C491.797,346.007 477.505,343.548 464.312,347.468C463.974,347.569 463.644,347.669 463.307,347.778Z" fill="#F0F0F0"/>
<path d="M463.384,348.208C480.524,351.56 496.155,360.145 508.057,372.744C510.669,375.412 512.837,378.468 514.482,381.8C515.977,385.097 516.549,388.729 516.138,392.317C515.823,395.67 515.106,399.064 515.624,402.435C515.915,404.156 516.573,405.798 517.553,407.251C518.534,408.705 519.815,409.938 521.313,410.87C524.986,413.287 529.321,414.261 533.594,415.068C538.338,415.964 543.28,416.821 547.24,419.739C547.72,420.093 548.249,419.339 547.77,418.986C540.881,413.908 531.649,414.974 524.112,411.39C520.596,409.717 517.57,406.991 516.699,403.115C515.937,399.727 516.673,396.226 517.022,392.833C517.475,389.339 517.053,385.788 515.791,382.491C514.324,379.087 512.279,375.954 509.744,373.225C504.137,366.993 497.57,361.668 490.283,357.445C481.994,352.579 472.92,349.146 463.455,347.294C462.87,347.18 462.802,348.094 463.384,348.208Z" fill="#FFFFFF"/>
<path d="M504.468,368.465C506.343,366.212 507.344,363.375 507.291,360.462C507.239,357.549 506.137,354.749 504.182,352.562C503.785,352.121 503.07,352.708 503.467,353.15C505.292,355.183 506.318,357.791 506.362,360.504C506.405,363.217 505.462,365.855 503.703,367.944C503.321,368.398 504.088,368.917 504.468,368.465Z" fill="#FFFFFF"/>
<path d="M516.526,390.637C510.513,391.278 504.475,389.664 499.617,386.116C499.136,385.764 498.607,386.517 499.087,386.869C504.15,390.552 510.436,392.219 516.692,391.539C517.288,391.474 517.119,390.572 516.526,390.637Z" fill="#FFFFFF"/>
<path d="M481.835,353.784C481.294,354.805 480.504,355.678 479.536,356.323C478.568,356.969 477.452,357.368 476.288,357.484C475.692,357.542 475.862,358.443 476.455,358.386C477.739,358.252 478.971,357.81 480.042,357.098C481.114,356.387 481.992,355.429 482.6,354.306C482.666,354.205 482.691,354.083 482.669,353.964C482.648,353.846 482.581,353.74 482.483,353.669C482.381,353.6 482.256,353.574 482.135,353.595C482.014,353.617 481.906,353.685 481.835,353.784Z" fill="#FFFFFF"/>
<path d="M95.179,0L380.393,0L380.393,92.205L369.591,92.205L369.591,116.32L345.103,92.205L95.179,92.205L95.179,0Z" fill="#E4E4E4"/>
<path d="M372.865,83.13L102.709,83.13L102.709,8.592L314.031,8.592C329.629,8.609 344.583,14.719 355.613,25.58C366.643,36.442 372.847,51.168 372.865,66.529L372.865,83.13Z" fill="#FFFFFF"/>
<path d="M285.214,132.56L0,132.56L0,224.764L10.803,224.764L10.803,248.88L35.292,224.764L285.214,224.764L285.214,132.56Z" fill="#E4E4E4"/>
<path d="M277.686,215.689L55.538,215.689C42.81,215.675 30.608,210.69 21.607,201.827C12.607,192.964 7.544,180.947 7.53,168.412L7.53,141.152L277.686,141.152L277.686,215.689Z" fill="#FFFFFF"/>
<rect  x="31.745" y="163.784" width="226.456" height="3.876" fill="#202B7D"/>
<rect  x="31.745" y="177.192" width="226.047" height="3.876" fill="#E6E6E6"/>
<rect  x="31.745" y="190.6" width="225.826" height="3.876" fill="#E6E6E6"/>
<path d="M189.565,61.203L175.219,47.076C173.288,45.175 172.181,42.611 172.13,39.923C172.08,37.235 173.09,34.632 174.948,32.662C176.806,30.692 179.367,29.508 182.093,29.359C184.819,29.211 187.497,30.109 189.565,31.864C191.632,30.109 194.31,29.211 197.036,29.36C199.762,29.509 202.323,30.693 204.181,32.662C206.039,34.632 207.048,37.235 206.998,39.923C206.948,42.611 205.841,45.175 203.911,47.076L189.565,61.203ZM182.677,30.937C180.91,30.935 179.182,31.451 177.712,32.417C176.243,33.383 175.097,34.757 174.421,36.365C173.744,37.973 173.567,39.742 173.912,41.448C174.258,43.155 175.109,44.723 176.359,45.953L189.565,58.957L202.77,45.953C203.601,45.136 204.26,44.166 204.709,43.098C205.159,42.03 205.39,40.886 205.391,39.73C205.391,38.574 205.16,37.43 204.711,36.362C204.262,35.294 203.604,34.323 202.774,33.506C201.944,32.689 200.958,32.041 199.874,31.598C198.79,31.156 197.627,30.929 196.454,30.929C195.28,30.929 194.118,31.157 193.033,31.6C191.949,32.043 190.964,32.692 190.135,33.509L189.565,34.071L188.994,33.509C188.165,32.692 187.18,32.044 186.096,31.602C185.012,31.161 183.85,30.935 182.677,30.937Z" fill="#202B7D"/>
<path d="M239.573,38.09C239.13,37.656 238.531,37.412 237.907,37.413C237.283,37.413 236.684,37.658 236.242,38.092C235.801,38.527 235.552,39.117 235.552,39.731C235.551,40.346 235.799,40.936 236.239,41.372L239.573,44.654L242.906,41.372C243.125,41.157 243.299,40.901 243.418,40.619C243.537,40.337 243.599,40.035 243.599,39.73C243.599,39.425 243.538,39.123 243.42,38.841C243.302,38.559 243.128,38.303 242.909,38.087C242.69,37.871 242.43,37.7 242.143,37.584C241.857,37.467 241.55,37.407 241.24,37.407C240.931,37.407 240.624,37.468 240.338,37.585C240.052,37.702 239.791,37.874 239.573,38.09Z" fill="#202B7D"/>
<path d="M225.861,38.09C225.419,37.655 224.819,37.411 224.195,37.411C223.57,37.411 222.971,37.656 222.529,38.091C222.087,38.526 221.839,39.116 221.838,39.731C221.838,40.346 222.086,40.937 222.527,41.372L225.861,44.654L229.194,41.372C229.413,41.157 229.588,40.901 229.707,40.619C229.825,40.337 229.887,40.035 229.887,39.73C229.887,39.425 229.827,39.123 229.708,38.841C229.59,38.559 229.416,38.303 229.197,38.087C228.978,37.871 228.718,37.7 228.431,37.584C228.145,37.467 227.838,37.407 227.528,37.407C227.219,37.407 226.912,37.468 226.626,37.585C226.34,37.702 226.08,37.874 225.861,38.09Z" fill="#202B7D"/>
<path d="M233.024,62.702C229.514,62.702 226.084,61.677 223.166,59.757C220.247,57.837 217.973,55.108 216.63,51.915C215.287,48.722 214.936,45.208 215.62,41.819C216.305,38.429 217.995,35.315 220.477,32.871C222.958,30.428 226.12,28.763 229.562,28.089C233.004,27.415 236.572,27.761 239.815,29.083C243.057,30.406 245.828,32.646 247.778,35.519C249.728,38.393 250.769,41.772 250.769,45.228C250.763,49.861 248.892,54.302 245.566,57.578C242.239,60.854 237.729,62.697 233.024,62.702ZM233.024,29.342C229.834,29.342 226.715,30.274 224.062,32.019C221.409,33.765 219.341,36.246 218.12,39.148C216.899,42.051 216.58,45.245 217.202,48.327C217.825,51.408 219.361,54.239 221.617,56.461C223.873,58.682 226.748,60.195 229.877,60.808C233.006,61.421 236.25,61.107 239.197,59.904C242.145,58.702 244.664,56.666 246.437,54.053C248.21,51.441 249.156,48.37 249.156,45.228C249.156,43.142 248.738,41.076 247.928,39.148C247.117,37.221 245.929,35.47 244.431,33.995C242.933,32.52 241.154,31.349 239.197,30.551C237.24,29.753 235.142,29.342 233.024,29.342Z" fill="#202B7D"/>
<path d="M276.579,62.702C273.07,62.702 269.639,61.677 266.721,59.757C263.803,57.837 261.528,55.108 260.185,51.915C258.842,48.722 258.491,45.208 259.176,41.819C259.86,38.429 261.55,35.315 264.032,32.871C266.514,30.428 269.675,28.763 273.118,28.089C276.56,27.415 280.128,27.761 283.37,29.083C286.613,30.406 289.384,32.646 291.334,35.519C293.284,38.393 294.324,41.772 294.324,45.228C294.319,49.861 292.448,54.302 289.121,57.578C285.795,60.854 281.284,62.697 276.579,62.702ZM276.579,29.342C273.389,29.342 270.27,30.274 267.617,32.019C264.964,33.765 262.897,36.246 261.676,39.148C260.455,42.051 260.135,45.245 260.758,48.327C261.38,51.408 262.917,54.239 265.173,56.461C267.429,58.682 270.303,60.195 273.432,60.808C276.562,61.421 279.805,61.107 282.753,59.904C285.701,58.702 288.22,56.666 289.993,54.053C291.765,51.441 292.711,48.37 292.711,45.228C292.711,43.142 292.294,41.076 291.483,39.148C290.673,37.221 289.484,35.47 287.986,33.995C286.488,32.52 284.71,31.349 282.753,30.551C280.796,29.753 278.698,29.342 276.579,29.342Z" fill="#202B7D"/>
<path d="M283.839,43.639C286.066,43.639 287.872,41.861 287.872,39.668C287.872,37.474 286.066,35.696 283.839,35.696C281.611,35.696 279.806,37.474 279.806,39.668C279.806,41.861 281.611,43.639 283.839,43.639Z" fill="#202B7D"/>
<path d="M270.127,43.639C272.354,43.639 274.16,41.861 274.16,39.668C274.16,37.474 272.354,35.696 270.127,35.696C267.9,35.696 266.094,37.474 266.094,39.668C266.094,41.861 267.9,43.639 270.127,43.639Z" fill="#202B7D"/>
<path d="M271.552,48.405C269.906,59.616 282.966,61.89 281.659,48.404C281.736,48.395 272.078,48.412 271.552,48.405Z" fill="#202B7D"/>
<path d="M226.81,50.732C230.498,55.615 236.875,56.053 240.283,50.732L226.81,50.732Z" fill="#202B7D"/>
<path d="M458.291,411.782L448.663,411.782L444.083,375.213L458.292,375.213L458.291,411.782Z" fill="#9E616A"/>
<path d="M460.746,420.972L429.703,420.971L429.703,420.585C429.703,417.429 430.976,414.403 433.242,412.171C435.508,409.94 438.581,408.686 441.785,408.686L441.786,408.686L460.746,408.687L460.746,420.972Z" fill="#2F2E41"/>
<path d="M385.748,411.47L376.475,408.919L382.056,372.485L395.741,376.25L385.748,411.47Z" fill="#9E616A"/>
<path d="M385.601,420.972L355.703,412.745L355.809,412.373C356.671,409.334 358.724,406.756 361.516,405.208C364.308,403.659 367.611,403.266 370.697,404.115L370.698,404.115L388.958,409.14L385.601,420.972Z" fill="#2F2E41"/>
<path d="M435.514,105.447C447.147,105.447 456.577,96.16 456.577,84.705C456.577,73.25 447.147,63.964 435.514,63.964C423.882,63.964 414.452,73.25 414.452,84.705C414.452,96.16 423.882,105.447 435.514,105.447Z" fill="#9E616A"/>
<path d="M445.483,188.524L447.153,199.78C447.153,199.78 468.215,241.011 445.355,261.246C445.355,261.246 411.193,362.698 401.432,376.357L393.271,393.173L377.565,390.853L387.305,333.103L403.744,250.622L406.184,186.248C406.184,186.248 442.144,183.718 445.483,188.524Z" fill="#2F2E41"/>
<path d="M441.502,258.702L453.061,323.224C453.061,323.224 459.225,352.818 459.739,364.201C460.253,375.583 462.307,390.254 462.307,390.254L441.502,393.542L420.953,306.761L441.502,258.702Z" fill="#2F2E41"/>
<path d="M458.451,132.56L456.955,170.118L449.054,187.328L446.126,193.71L403.744,193.204L408.111,164.115C401.946,148.433 416.587,142.109 416.587,142.109L428.916,129.171L427.824,112.453L446.382,108.973C456.04,107.163 451.383,120.96 451.383,120.96C464.226,119.695 458.451,132.56 458.451,132.56Z" fill="#202B7D"/>
<path d="M372.392,168.759C372.666,168.759 372.888,168.164 372.888,167.429C372.888,166.694 372.666,166.098 372.392,166.098C372.119,166.098 371.897,166.694 371.897,167.429C371.897,168.164 372.119,168.759 372.392,168.759Z" transform="rotate(-114.514 372.392 167.429)" fill="#3F3D56"/>
<path d="M371.333,163.849C371.497,163.593 371.711,163.372 371.962,163.198C372.213,163.024 372.496,162.9 372.796,162.834C373.096,162.768 373.406,162.76 373.708,162.812C374.011,162.863 374.3,162.973 374.559,163.135L404.192,181.614C404.452,181.776 404.676,181.987 404.853,182.234C405.03,182.481 405.156,182.76 405.223,183.055C405.29,183.35 405.298,183.656 405.245,183.953C405.193,184.251 405.081,184.536 404.917,184.792L371.333,163.849Z" fill="#202B7D"/>
<path d="M368.531,164.826L369.463,163.376C369.69,163.024 370.049,162.774 370.463,162.683C370.876,162.591 371.31,162.665 371.668,162.889L405.408,183.929C405.832,184.193 406.132,184.613 406.242,185.095C406.352,185.577 406.263,186.083 405.994,186.501L405.219,187.705L368.531,164.826Z" fill="#3F3D56"/>
<path d="M374.835,165.274L374.174,165.274L374.174,167.935L374.835,167.935L374.835,165.274Z" transform="rotate(-114.514 374.504 166.604)" fill="#D0CDE1"/>
<path d="M377.939,167.21L377.278,167.21L377.278,169.871L377.939,169.871L377.939,167.21Z" transform="rotate(-114.514 377.609 168.54)" fill="#D0CDE1"/>
<path d="M400.246,172.196C400.609,172.432 400.952,172.695 401.272,172.984L439.104,163.879L441.768,154.939L455.995,157.135L452.84,173.413C452.585,174.728 451.904,175.926 450.898,176.828C449.893,177.729 448.618,178.285 447.265,178.412L403.157,182.552C402.424,184.034 401.25,185.261 399.792,186.07C398.333,186.879 396.659,187.232 394.992,187.081C393.325,186.93 391.744,186.283 390.46,185.226C389.176,184.169 388.248,182.751 387.802,181.163C387.355,179.574 387.411,177.889 387.96,176.332C388.51,174.775 389.528,173.419 390.879,172.446C392.23,171.472 393.85,170.927 395.523,170.882C397.196,170.838 398.844,171.296 400.246,172.196Z" fill="#9E616A"/>
<path d="M437.958,162.031C437.692,161.604 437.523,161.127 437.462,160.63C437.4,160.134 437.449,159.63 437.603,159.154L442.996,127.822C443.413,125.296 444.83,123.036 446.937,121.538C449.044,120.04 451.668,119.426 454.233,119.83C456.799,120.235 459.097,121.625 460.624,123.695C462.151,125.766 462.781,128.348 462.377,130.876L462.119,163.09C462.111,163.59 461.994,164.083 461.776,164.534C461.558,164.986 461.244,165.386 460.854,165.707C460.465,166.028 460.01,166.263 459.52,166.395C459.031,166.528 458.518,166.554 458.016,166.474L440.401,163.646C439.9,163.565 439.422,163.38 439,163.101C438.579,162.822 438.223,162.457 437.958,162.031Z" fill="#202B7D"/>
<path d="M445.494,59.093C441.469,59.088 437.518,60.157 434.06,62.186L432.536,62.186C426.913,62.186 421.52,64.386 417.543,68.302C413.567,72.218 411.333,77.529 411.333,83.066L423.113,83.066L423.113,107.813L467.874,107.813L467.874,81.133C467.874,75.288 465.516,69.682 461.319,65.548C457.122,61.415 451.429,59.093 445.494,59.093Z" fill="#2F2E41"/>
<path d="M575.065,422L248.937,422C248.814,422 248.692,421.977 248.578,421.931C248.465,421.885 248.361,421.817 248.274,421.731C248.187,421.646 248.118,421.544 248.071,421.432C248.024,421.32 247.999,421.2 247.999,421.079C247.999,420.958 248.024,420.838 248.071,420.726C248.118,420.614 248.187,420.513 248.274,420.427C248.361,420.342 248.465,420.274 248.578,420.228C248.692,420.182 248.814,420.158 248.937,420.158L575.065,420.158C575.187,420.158 575.309,420.182 575.423,420.228C575.537,420.274 575.641,420.342 575.727,420.427C575.815,420.513 575.883,420.614 575.931,420.726C575.979,420.838 576.003,420.958 576.003,421.079C576.003,421.2 575.979,421.32 575.931,421.432C575.883,421.544 575.815,421.646 575.727,421.731C575.641,421.817 575.537,421.885 575.423,421.931C575.309,421.977 575.187,422 575.065,422Z" fill="#CACACA"/>
</svg>
