<svg width="632" height="760" viewBox="0 0 632 760" fill="none" xmlns="http://www.w3.org/2000/svg" xmlns:xlink="http://www.w3.org/1999/xlink">
<path d="M338.02,106.772C358.987,84.81 388.505,76.391 411.601,93.524C385.6,109.533 364.43,138.067 351.837,174.078C347.015,187.991 342.675,204.178 332.727,210.608C326.538,214.609 319.233,213.836 312.824,210.606C306.414,207.374 300.713,201.886 295.091,196.455L293.405,196.168C303.41,162.036 317.054,128.735 338.02,106.772Z" fill="#F0F0F0"/>
<path d="M411.415,94.254C389.85,95.212 369.046,105.781 351.958,124.459C348.229,128.388 344.96,133.125 342.272,138.497C339.772,143.85 338.329,150.055 338.092,156.466C337.786,162.438 337.961,168.596 336.637,174.359C335.929,177.294 334.791,179.984 333.297,182.252C331.804,184.52 329.99,186.315 327.973,187.519C323.004,190.704 317.523,191.167 312.153,191.355C306.19,191.565 299.994,191.648 294.572,195.63C293.915,196.112 293.425,194.638 294.081,194.156C303.516,187.23 314.541,191.749 324.457,187.626C329.085,185.703 333.331,181.79 335.189,175.244C336.813,169.519 336.637,163.168 336.909,157.118C337.076,150.859 338.32,144.752 340.535,139.332C343.022,133.784 346.157,128.876 349.805,124.818C357.916,115.498 367.01,108.044 376.753,102.73C387.85,96.577 399.607,93.162 411.516,92.631C412.253,92.598 412.147,94.222 411.415,94.254Z" fill="#FFFFFF"/>
<path d="M357.211,117.986C355.39,113.495 354.754,108.233 355.417,103.138C356.08,98.044 357.998,93.45 360.829,90.176C361.404,89.516 362.154,90.751 361.578,91.412C358.938,94.453 357.152,98.733 356.541,103.479C355.931,108.224 356.537,113.123 358.25,117.29C358.621,118.197 357.58,118.887 357.211,117.986Z" fill="#FFFFFF"/>
<path d="M337.966,153.409C345.158,156.26 352.843,155.162 359.49,150.334C360.148,149.855 360.637,151.329 359.98,151.807C353.057,156.813 345.057,157.932 337.578,154.943C336.865,154.657 337.257,153.125 337.966,153.409Z" fill="#FFFFFF"/>
<path d="M387.795,98.736C388.245,100.682 389.028,102.439 390.074,103.85C391.12,105.26 392.398,106.28 393.791,106.818C394.506,107.091 394.113,108.622 393.403,108.351C391.866,107.747 390.456,106.618 389.298,105.063C388.139,103.508 387.267,101.575 386.757,99.431C386.696,99.235 386.691,99.014 386.742,98.812C386.793,98.611 386.896,98.445 387.031,98.347C387.169,98.256 387.326,98.246 387.469,98.319C387.613,98.391 387.73,98.541 387.795,98.736Z" fill="#FFFFFF"/>
<path d="M429.914,215.948C429.464,215.796 429.014,215.644 428.557,215.5C422.501,213.498 416.341,212.196 410.137,211.607C409.657,211.551 409.171,211.504 408.692,211.468C393.734,210.277 378.75,213.034 364.502,219.599C358.834,222.219 353.315,225.447 347.992,229.254C340.641,234.512 332.966,241.043 325.053,242.508C324.229,242.674 323.398,242.768 322.565,242.788L293.289,199.106C293.257,198.96 293.218,198.822 293.187,198.675L291.962,197.007C292.226,196.783 292.504,196.559 292.769,196.336C292.923,196.205 293.082,196.084 293.236,195.954C293.34,195.87 293.444,195.786 293.535,195.702C293.57,195.674 293.605,195.646 293.632,195.628C293.723,195.543 293.813,195.479 293.897,195.404C295.449,194.147 297.01,192.903 298.58,191.673C298.587,191.664 298.587,191.664 298.6,191.664C310.578,182.332 323.21,174.336 336.297,169.314C336.691,169.163 337.091,169.002 337.498,168.871C343.406,166.653 349.432,165.124 355.515,164.298C358.847,163.861 362.193,163.664 365.539,163.707C374.185,163.841 382.762,165.903 390.956,169.817C407.29,177.622 421.681,192.748 429.34,214.294C429.535,214.845 429.725,215.387 429.914,215.948Z" fill="#F0F0F0"/>
<path d="M429.457,216.377C411.831,198.731 390.733,189.409 369.159,189.734C364.513,189.687 359.892,190.679 355.464,192.672C351.196,194.812 347.409,198.534 344.497,203.451C341.718,207.958 339.243,213.025 335.739,216.496C333.927,218.235 331.876,219.411 329.721,219.947C327.566,220.483 325.355,220.367 323.234,219.606C317.914,217.907 313.341,213.597 308.973,209.163C304.123,204.24 299.141,199.017 293.121,197.566C292.391,197.39 292.626,195.795 293.355,195.971C303.829,198.495 310.713,211.516 320.381,216.691C324.892,219.105 329.944,219.606 334.207,215.966C337.934,212.782 340.49,207.56 343.276,202.962C346.067,198.106 349.654,194.293 353.723,191.856C358.064,189.549 362.651,188.307 367.287,188.182C377.72,187.665 388.146,189.477 398.182,193.553C409.655,198.114 420.492,205.424 430.226,215.167C430.829,215.771 430.055,216.976 429.457,216.377Z" fill="#FFFFFF"/>
<path d="M376.101,189.049C376.554,183.909 378.281,179.164 380.973,175.663C383.665,172.161 387.147,170.131 390.798,169.934C391.537,169.898 391.611,171.524 390.871,171.56C387.472,171.734 384.228,173.626 381.726,176.894C379.224,180.162 377.628,184.591 377.226,189.381C377.138,190.422 376.014,190.084 376.101,189.049Z" fill="#FFFFFF"/>
<path d="M345.695,200.902C350.227,209.319 356.829,215.003 364.186,216.823C364.915,217.002 364.68,218.597 363.952,218.418C356.299,216.504 349.436,210.568 344.734,201.796C344.286,200.959 345.249,200.07 345.695,200.902Z" fill="#FFFFFF"/>
<path d="M408.694,199.79C408.227,201.728 408.106,203.799 408.343,205.819C408.579,207.838 409.166,209.743 410.05,211.362C410.505,212.19 409.541,213.078 409.089,212.255C408.118,210.46 407.472,208.355 407.207,206.125C406.943,203.894 407.067,201.606 407.57,199.459C407.605,199.251 407.695,199.07 407.821,198.952C407.947,198.835 408.1,198.79 408.249,198.827C408.398,198.872 408.528,198.999 408.611,199.179C408.695,199.359 408.725,199.579 408.694,199.79Z" fill="#FFFFFF"/>
<path d="M332.489,139.445L330.219,139.445L330.219,51.313C330.219,44.614 329.289,37.981 327.481,31.793C325.674,25.604 323.024,19.981 319.684,15.244C316.343,10.508 312.378,6.75 308.013,4.187C303.649,1.624 298.972,0.304 294.248,0.304L162.569,0.304C157.845,0.304 153.168,1.624 148.803,4.187C144.439,6.75 140.474,10.508 137.133,15.244C133.793,19.981 131.143,25.604 129.335,31.793C127.528,37.981 126.597,44.614 126.597,51.313L126.597,534.814C126.597,548.344 130.387,561.318 137.133,570.884C143.879,580.45 153.029,585.824 162.569,585.824L294.247,585.824C303.788,585.824 312.937,580.45 319.684,570.884C326.43,561.318 330.219,548.344 330.219,534.814L330.219,202.18L332.489,202.18L332.489,139.445Z" fill="#3F3D56"/>
<path d="M295.699,13.575L278.511,13.575C279.301,16.323 279.603,19.304 279.389,22.257C279.176,25.209 278.453,28.041 277.286,30.505C276.118,32.968 274.542,34.986 272.695,36.382C270.848,37.777 268.787,38.507 266.694,38.508L191.257,38.508C189.164,38.507 187.103,37.777 185.256,36.382C183.409,34.986 181.833,32.968 180.665,30.505C179.498,28.042 178.775,25.209 178.562,22.257C178.348,19.304 178.65,16.323 179.441,13.575L163.387,13.575C156.262,13.575 149.429,17.588 144.391,24.732C139.353,31.876 136.523,41.565 136.523,51.667L136.523,534.461C136.523,539.463 137.218,544.417 138.568,549.037C139.918,553.659 141.897,557.859 144.391,561.397C146.886,564.933 149.847,567.739 153.106,569.653C156.366,571.567 159.859,572.553 163.387,572.553L295.699,572.553C299.227,572.553 302.72,571.567 305.979,569.653C309.238,567.739 312.2,564.933 314.694,561.397C317.189,557.859 319.168,553.659 320.518,549.037C321.868,544.417 322.563,539.463 322.563,534.461L322.563,51.667C322.562,41.565 319.732,31.876 314.694,24.732C309.656,17.588 302.824,13.575 295.699,13.575Z" fill="#FFFFFF"/>
<path d="M232.085,417.461C222.342,417.475 212.692,414.763 203.689,409.481C194.686,404.2 186.505,396.453 179.615,386.684C172.726,376.914 167.263,365.314 163.538,352.547C159.814,339.78 157.901,326.097 157.91,312.281C157.897,292.881 161.673,273.854 168.819,257.311C175.966,240.768 186.205,227.355 198.399,218.559C207.239,212.182 216.889,208.378 226.782,207.371C236.675,206.365 246.609,208.175 256,212.697C272.632,220.734 286.713,236.882 295.733,258.264C304.754,279.646 308.13,304.874 305.259,329.456C302.388,354.037 293.457,376.375 280.056,392.492C266.656,408.609 249.656,417.457 232.085,417.461ZM232.085,211.226C220.832,211.179 209.735,214.953 199.722,222.233C190.969,228.556 183.233,237.377 176.999,248.142C170.765,258.906 166.167,271.382 163.495,284.786C160.822,298.19 160.133,312.233 161.47,326.032C162.807,339.832 166.141,353.091 171.264,364.977C176.386,376.862 183.186,387.118 191.236,395.1C199.287,403.081 208.414,408.617 218.045,411.359C227.676,414.101 237.602,413.991 247.202,411.033C256.801,408.077 265.866,402.339 273.827,394.178C277.675,390.24 281.235,385.762 284.45,380.812C293.854,366.383 300.087,348.379 302.386,329.005C304.685,309.63 302.949,289.725 297.392,271.727C291.834,253.73 282.697,238.421 271.097,227.675C259.498,216.929 245.941,211.213 232.085,211.226Z" fill="#F0F0F0"/>
<path d="M71.36,218.937C73.396,219.299 75.351,220.29 77.088,221.839C78.824,223.389 80.301,225.459 81.412,227.905C82.523,230.351 83.243,233.113 83.52,235.996C83.798,238.879 83.626,241.813 83.017,244.591L107.662,273.7L98.839,299.252L64.444,257.451C61.22,255.691 58.563,252.315 56.977,247.963C55.391,243.611 54.985,238.585 55.838,233.838C56.69,229.091 58.741,224.952 61.602,222.205C64.463,219.459 67.935,218.296 71.36,218.937Z" fill="#FFB6B6"/>
<path d="M301.529,340.329C301.035,332.795 298.991,319.252 297.257,314.244C291.927,294.462 257.488,278.203 252.864,276.107L251.691,257.615L203.841,250.314L197.771,273.963L180.609,283.092C179.444,283.708 178.389,284.682 177.521,285.944C176.652,287.207 175.992,288.726 175.586,290.393L160.189,296.703L144.995,302.932L92.21,250.19L89.718,252.5L73.061,267.913L70.491,270.292L138.8,357.681L164.174,349.239L183.256,342.873L184.885,352.25L180.667,385.192C192.886,402.526 209.061,413.119 226.29,415.071C243.519,417.024 260.674,410.209 274.681,395.848L285.521,382.209C293.075,370.625 298.651,356.734 301.819,341.608L301.529,340.329Z" fill="#E4E4E4"/>
<path d="M231.971,236.438C251.926,236.438 268.103,215.115 268.103,188.812C268.103,162.51 251.926,141.187 231.971,141.187C212.016,141.187 195.84,162.51 195.84,188.812C195.84,215.115 212.016,236.438 231.971,236.438Z" transform="rotate(-50.299 231.971 188.813)" fill="#FFB6B6"/>
<path d="M204.758,133.118C208.107,126.336 213.134,121.588 218.838,119.819C224.478,118.174 230.349,119.701 235.21,124.077C240.496,121.058 246.196,119.054 251.796,120.073C257.395,121.091 262.884,125.527 265.475,132.834C266.02,134.727 266.681,136.548 267.451,138.277C269.734,142.595 273.976,143.156 277.723,143.363C275.829,144.93 273.934,146.496 272.039,148.063C273.928,149.31 275.816,150.558 277.704,151.806C275.134,153.197 272.565,154.588 269.995,155.979C275.976,163.434 277.423,176.702 275.158,187.825C273.014,198.357 268.098,207.223 262.609,214.813C261.538,209.149 262.716,203.009 263.5,197.146C264.329,190.95 264.461,183.706 261.402,179.332C259.339,176.381 256.312,175.49 253.457,174.774C239.06,171.163 224.529,168.717 209.935,167.446C207.982,167.064 205.993,167.352 204.134,168.286C200.583,170.524 199.156,176.67 198.127,182.119C197.634,172.554 198.028,162.938 199.298,153.519C200.272,146.309 201.805,139.093 204.758,133.118Z" fill="#2F2E41"/>
<path d="M249.538,467.017L208.815,467.017C207.4,467.017 206.044,466.22 205.044,464.802C204.044,463.384 203.482,461.46 203.482,459.455C203.482,457.449 204.044,455.526 205.044,454.108C206.044,452.689 207.4,451.893 208.815,451.893L249.538,451.893C250.952,451.893 252.309,452.689 253.309,454.108C254.309,455.526 254.871,457.449 254.871,459.455C254.871,461.46 254.309,463.384 253.309,464.802C252.309,466.22 250.952,467.017 249.538,467.017Z" fill="#202B7D"/>
<path d="M115.909,62.347L3.896,62.347C2.864,62.345 1.875,61.762 1.145,60.726C0.416,59.69 0.006,58.286 0.006,56.823C0.006,55.359 0.416,53.955 1.145,52.919C1.875,51.884 2.864,51.3 3.896,51.298L115.909,51.298C116.943,51.298 117.934,51.88 118.664,52.916C119.395,53.952 119.805,55.357 119.805,56.823C119.805,58.288 119.395,59.693 118.664,60.729C117.934,61.765 116.943,62.347 115.909,62.347Z" fill="#202B7D"/>
<path d="M180.582,97.632L3.896,97.632C2.863,97.632 1.872,97.05 1.141,96.014C0.41,94.978 0,93.572 0,92.107C0,90.642 0.41,89.237 1.141,88.201C1.872,87.165 2.863,86.583 3.896,86.583L180.582,86.583C181.615,86.583 182.606,87.165 183.336,88.201C184.067,89.237 184.477,90.642 184.477,92.107C184.477,93.572 184.067,94.978 183.336,96.014C182.606,97.05 181.615,97.632 180.582,97.632Z" fill="#202B7D"/>
<path d="M146.628,130.873L3.896,130.873C2.863,130.873 1.872,130.291 1.141,129.255C0.41,128.219 0,126.814 0,125.349C0,123.884 0.41,122.479 1.141,121.443C1.872,120.407 2.863,119.825 3.896,119.825L146.628,119.825C147.661,119.825 148.652,120.407 149.383,121.443C150.113,122.479 150.524,123.884 150.524,125.349C150.524,126.814 150.113,128.219 149.383,129.255C148.652,130.291 147.661,130.873 146.628,130.873Z" fill="#CACACA"/>
<path d="M84.382,163.992L3.896,163.992C2.863,163.992 1.872,163.41 1.141,162.374C0.41,161.338 0,159.933 0,158.468C0,157.003 0.41,155.598 1.141,154.562C1.872,153.526 2.863,152.944 3.896,152.944L84.382,152.944C85.415,152.944 86.406,153.526 87.136,154.562C87.867,155.598 88.277,157.003 88.277,158.468C88.277,159.933 87.867,161.338 87.136,162.374C86.406,163.41 85.415,163.992 84.382,163.992Z" fill="#CACACA"/>
<path d="M128.844,197.109L3.896,197.109C2.864,197.106 1.875,196.523 1.145,195.488C0.416,194.452 0.007,193.048 0.007,191.585C0.007,190.121 0.416,188.717 1.145,187.682C1.875,186.646 2.864,186.063 3.896,186.06L128.844,186.06C129.876,186.063 130.866,186.646 131.595,187.682C132.324,188.717 132.734,190.121 132.734,191.585C132.734,193.048 132.324,194.452 131.595,195.488C130.866,196.523 129.876,197.106 128.844,197.109Z" fill="#CACACA"/>
<path d="M480.982,737.566L470.942,737.565L466.166,682.654L480.984,682.655L480.982,737.566Z" fill="#9F616A"/>
<path d="M484.932,757.267L446.602,757.265L446.602,756.578C446.603,750.967 448.175,745.587 450.972,741.62C453.77,737.652 457.565,735.424 461.521,735.423L461.522,735.423L468.523,727.891L481.586,735.424L484.932,735.425L484.932,757.267Z" fill="#2F2E41"/>
<path d="M475.132,479.495L470.704,402.942L467.226,374.208L486.701,368.109L493.164,407.447L487.533,481.62C488.669,483.593 489.362,486.003 489.525,488.54C489.687,491.077 489.311,493.625 488.445,495.856C487.579,498.087 486.261,499.9 484.663,501.062C483.064,502.224 481.257,502.682 479.474,502.376C477.69,502.071 476.012,501.016 474.655,499.348C473.297,497.68 472.322,495.474 471.856,493.014C471.389,490.554 471.452,487.953 472.035,485.544C472.619,483.135 473.698,481.029 475.132,479.495Z" fill="#9F616A"/>
<path d="M427.653,737.566L417.614,737.565L412.838,682.654L427.655,682.655L427.653,737.566Z" fill="#9F616A"/>
<path d="M411.587,496.85L407.136,507.767C407.136,507.767 402.246,509.661 403.844,532.266C405.442,554.87 405.511,688.798 413.247,705.278L414.647,719.43L429.256,721.41L429.624,708.852L447.044,534.399C447.044,534.399 457.303,705.656 465.79,709.848L468.855,724.116L482.243,724.124L481.453,707.31L482.316,495.08L411.587,496.85Z" fill="#2F2E41"/>
<path d="M406.693,506.934L406.386,506.822C415.572,458.101 412.922,395.011 406.436,327.264L406.436,326.983L429.884,296.528L450.246,296.528L470.431,315C483.481,324.252 486.446,343.844 486.475,344.042L486.495,344.181L478.499,383.756L484.523,498.208L484.53,498.34L484.495,498.464C482.546,505.472 477.322,504.474 471.273,503.318C465.235,502.164 442.984,512.72 436.161,512.72C422.828,512.72 407.646,507.28 406.693,506.934Z" fill="#E4E4E4"/>
<path d="M466.204,330.425L474.951,325.029L486.476,345.066L495.817,409.271L463.82,402.396L466.204,330.425Z" fill="#E4E4E4"/>
<path d="M331.662,448.82L371.65,397.006L385.547,375.521L400.867,393.629L382.882,424.951L338.067,464.027C337.661,466.509 336.741,468.761 335.426,470.496C334.11,472.231 332.459,473.368 330.685,473.762C328.91,474.156 327.093,473.788 325.466,472.706C323.84,471.625 322.479,469.878 321.558,467.691C320.637,465.504 320.198,462.977 320.298,460.433C320.398,457.89 321.031,455.447 322.117,453.418C323.204,451.39 324.693,449.868 326.394,449.048C328.095,448.229 329.929,448.149 331.662,448.82Z" fill="#9F616A"/>
<path d="M370.779,397.57L381.854,377.175C381.946,376.883 391.135,347.766 399.099,335.115C407.27,322.137 413.702,328.774 413.766,328.846L413.926,329.017L414.371,376.941L383.704,428.901L370.779,397.57Z" fill="#E4E4E4"/>
<path d="M438.046,282.508C452.569,282.508 464.342,274.044 464.342,263.602C464.342,253.161 452.569,244.696 438.046,244.696C423.522,244.696 411.749,253.161 411.749,263.602C411.749,274.044 423.522,282.508 438.046,282.508Z" transform="rotate(-166.943 438.046 263.602)" fill="#9F616A"/>
<path d="M420.981,259.673C420.981,259.673 420.832,250.368 420.002,246.251C419.172,242.134 417.513,238.605 418.343,238.605C419.172,238.605 419.587,235.664 419.587,235.664C419.587,235.664 420.417,235.076 420.832,235.664C421.246,236.252 421.661,231.547 421.661,231.547C421.661,231.547 422.076,229.782 422.491,230.959C422.906,232.135 422.906,231.547 423.32,229.782C423.735,228.018 425.809,226.841 425.809,226.841C425.809,226.841 433.69,227.429 434.935,225.077C436.179,222.724 450.282,224.489 453.185,227.429C456.089,230.37 468.947,240.957 466.874,249.78C464.8,258.603 458.829,278.917 457.333,280.954C454.968,284.174 453.33,285.335 442.136,288.494C439.945,289.112 428.763,278.971 428.763,277.207C428.763,275.442 430.111,269.847 427.944,269.079C424.668,267.917 424.3,273.79 423.47,272.025C422.64,270.261 420.981,259.673 420.981,259.673Z" fill="#2F2E41"/>
<path d="M431.603,757.267L393.274,757.265L393.274,756.578C393.274,750.967 394.846,745.587 397.644,741.62C400.442,737.652 404.236,735.424 408.193,735.423L408.194,735.423L415.195,727.891L428.258,735.424L431.604,735.425L431.603,757.267Z" fill="#2F2E41"/>
<path d="M630.846,758.304L3.227,758.304C2.921,758.304 2.627,758.132 2.411,757.825C2.194,757.518 2.072,757.101 2.072,756.667C2.072,756.233 2.194,755.817 2.411,755.51C2.627,755.203 2.921,755.03 3.227,755.03L630.846,755.03C631.152,755.03 631.444,755.203 631.662,755.51C631.878,755.817 632,756.233 632,756.667C632,757.101 631.878,757.518 631.662,757.825C631.444,758.132 631.152,758.304 630.846,758.304Z" fill="#CACACA"/>
</svg>
