<svg width="62" height="38" viewBox="0 0 62 38" fill="none" xmlns="http://www.w3.org/2000/svg" xmlns:xlink="http://www.w3.org/1999/xlink">
<path d="M52.488,7.428L52.488,14.675L55.603,14.675L55.603,21.921L52.488,21.921L52.488,29.168L5.771,29.168L5.771,7.428L52.488,7.428ZM54.046,0.181L4.214,0.181C1.634,0.181 -0.458,2.615 -0.458,5.616L-0.458,30.98C-0.458,33.981 1.634,36.415 4.214,36.415L54.046,36.415C56.626,36.415 58.717,33.981 58.717,30.98L58.717,29.168L59.496,29.168C60.786,29.168 61.832,27.951 61.832,26.451L61.832,10.146C61.832,8.645 60.786,7.428 59.496,7.428L58.717,7.428L58.717,5.616C58.717,2.615 56.626,0.181 54.046,0.181ZM30.687,11.051L8.885,11.051L8.885,25.545L30.687,25.545L30.687,11.051Z" fill="#000000"/>
</svg>
