<svg width="60" height="60" viewBox="0 0 60 60" fill="none" xmlns="http://www.w3.org/2000/svg" xmlns:xlink="http://www.w3.org/1999/xlink">
<path d="M30,60C34.73,60 38.567,56.643 38.567,52.5L21.433,52.5C21.433,56.643 25.27,60 30,60ZM58.847,42.456C56.259,40.023 51.418,36.363 51.418,24.375C51.418,15.27 44.121,7.98 34.283,6.192L34.283,3.75C34.283,1.679 32.365,0 30,0C27.635,0 25.717,1.679 25.717,3.75L25.717,6.192C15.879,7.98 8.582,15.27 8.582,24.375C8.582,36.363 3.741,40.023 1.153,42.456C0.35,43.212 -0.007,44.115 0,45C0.015,46.922 1.738,48.75 4.299,48.75L55.701,48.75C58.262,48.75 59.987,46.922 60,45C60.007,44.115 59.65,43.211 58.847,42.456Z" fill="#FFFFFF"/>
</svg>
