<svg width="62" height="60" viewBox="0 0 62 60" fill="none" xmlns="http://www.w3.org/2000/svg" xmlns:xlink="http://www.w3.org/1999/xlink">
<path d="M60.717,25.076C60.475,23.997 59.804,23 59.039,22.582C58.797,22.447 57.293,22.285 55.682,22.218C52.984,22.096 52.689,22.042 51.829,21.544C50.473,20.748 50.111,19.885 50.098,17.566C50.084,13.116 48.245,8.977 44.607,5.256C42.016,2.599 39.116,0.806 35.813,-0.205C35.021,-0.448 33.249,-0.529 27.315,-0.596C17.999,-0.704 15.931,-0.515 12.763,0.752C6.923,3.071 2.734,8.006 1.204,14.316C0.922,15.503 0.855,17.404 0.788,28.326C0.707,42.011 0.801,44.02 1.647,46.73C3.741,53.418 9.689,58.367 15.663,59.445C17.65,59.809 42.15,59.89 44.66,59.553C49.024,58.96 52.447,57.193 55.655,53.904C57.978,51.517 59.428,48.942 60.381,45.53C61.039,43.157 60.985,26.276 60.717,25.076ZM17.475,16.501C18.522,15.435 18.817,15.395 25.369,15.395C31.262,15.395 31.464,15.409 32.323,15.853C33.571,16.487 34.122,17.377 34.122,18.806C34.122,20.087 33.612,20.991 32.471,21.719C31.853,22.11 31.491,22.137 25.718,22.164C22.16,22.191 19.314,22.11 18.898,22.002C16.67,21.368 15.837,18.159 17.475,16.501ZM43.224,43.44L41.224,43.764L30.819,43.885C21.677,43.993 19.099,43.831 18.616,43.616C17.663,43.198 16.763,42.038 16.616,41C16.468,40.016 16.965,38.667 17.717,37.98C18.67,37.117 19.086,37.09 30.779,37.076C42.808,37.063 42.741,37.063 43.882,38.128C45.506,39.652 45.157,42.335 43.224,43.44Z" fill="#FFFFFF"/>
</svg>
