<svg width="50" height="40" viewBox="0 0 50 40" fill="none" xmlns="http://www.w3.org/2000/svg" xmlns:xlink="http://www.w3.org/1999/xlink">
<path d="M4.437,-0.924C3.508,-0.924 2.6,-0.648 1.827,-0.129C1.054,0.389 0.452,1.126 0.096,1.988C-0.259,2.85 -0.352,3.799 -0.171,4.714C0.01,5.629 0.458,6.47 1.115,7.129C1.772,7.789 2.609,8.239 3.521,8.421C4.432,8.603 5.377,8.509 6.235,8.152C7.094,7.795 7.828,7.19 8.344,6.415C8.86,5.639 9.136,4.727 9.136,3.793C9.136,2.542 8.641,1.342 7.759,0.457C6.878,-0.427 5.683,-0.924 4.437,-0.924ZM4.437,14.802C3.508,14.802 2.6,15.079 1.827,15.597C1.054,16.115 0.452,16.852 0.096,17.714C-0.259,18.576 -0.352,19.525 -0.171,20.44C0.01,21.355 0.458,22.196 1.115,22.856C1.772,23.516 2.609,23.965 3.521,24.147C4.432,24.329 5.377,24.236 6.235,23.878C7.094,23.521 7.828,22.917 8.344,22.141C8.86,21.365 9.136,20.453 9.136,19.52C9.136,18.268 8.641,17.068 7.759,16.184C6.878,15.299 5.683,14.802 4.437,14.802ZM4.437,30.528C3.508,30.528 2.6,30.805 1.827,31.323C1.054,31.842 0.452,32.578 0.096,33.441C-0.259,34.303 -0.352,35.251 -0.171,36.166C0.01,37.082 0.458,37.922 1.115,38.582C1.772,39.242 2.609,39.691 3.521,39.873C4.432,40.055 5.377,39.962 6.235,39.605C7.094,39.248 7.828,38.643 8.344,37.867C8.86,37.091 9.136,36.179 9.136,35.246C9.136,33.995 8.641,32.795 7.759,31.91C6.878,31.025 5.683,30.528 4.437,30.528ZM48.289,32.101L16.966,32.101C16.551,32.101 16.153,32.266 15.859,32.561C15.565,32.856 15.4,33.256 15.4,33.673L15.4,36.819C15.4,37.236 15.565,37.636 15.859,37.931C16.153,38.226 16.551,38.391 16.966,38.391L48.289,38.391C48.705,38.391 49.103,38.226 49.397,37.931C49.69,37.636 49.855,37.236 49.855,36.819L49.855,33.673C49.855,33.256 49.69,32.856 49.397,32.561C49.103,32.266 48.705,32.101 48.289,32.101ZM48.289,0.648L16.966,0.648C16.551,0.648 16.153,0.814 15.859,1.109C15.565,1.404 15.4,1.804 15.4,2.221L15.4,5.366C15.4,5.783 15.565,6.183 15.859,6.478C16.153,6.773 16.551,6.939 16.966,6.939L48.289,6.939C48.705,6.939 49.103,6.773 49.397,6.478C49.69,6.183 49.855,5.783 49.855,5.366L49.855,2.221C49.855,1.804 49.69,1.404 49.397,1.109C49.103,0.814 48.705,0.648 48.289,0.648ZM48.289,16.374L16.966,16.374C16.551,16.374 16.153,16.54 15.859,16.835C15.565,17.13 15.4,17.53 15.4,17.947L15.4,21.092C15.4,21.509 15.565,21.909 15.859,22.204C16.153,22.499 16.551,22.665 16.966,22.665L48.289,22.665C48.705,22.665 49.103,22.499 49.397,22.204C49.69,21.909 49.855,21.509 49.855,21.092L49.855,17.947C49.855,17.53 49.69,17.13 49.397,16.835C49.103,16.54 48.705,16.374 48.289,16.374Z" fill="#000000"/>
</svg>
