<svg width="48" height="40" viewBox="0 0 48 40" fill="none" xmlns="http://www.w3.org/2000/svg" xmlns:xlink="http://www.w3.org/1999/xlink">
<path d="M15.567,22.5L11.817,22.5C11.126,22.5 10.567,23.059 10.567,23.75L10.567,38.75C10.567,39.441 11.126,40 11.817,40L15.567,40C16.257,40 16.817,39.441 16.817,38.75L16.817,23.75C16.817,23.059 16.257,22.5 15.567,22.5ZM5.567,30L1.817,30C1.126,30 0.567,30.559 0.567,31.25L0.567,38.75C0.567,39.441 1.126,40 1.817,40L5.567,40C6.257,40 6.817,39.441 6.817,38.75L6.817,31.25C6.817,30.559 6.257,30 5.567,30ZM25.567,15L21.817,15C21.126,15 20.567,15.559 20.567,16.25L20.567,38.75C20.567,39.441 21.126,40 21.817,40L25.567,40C26.257,40 26.817,39.441 26.817,38.75L26.817,16.25C26.817,15.559 26.257,15 25.567,15ZM35.567,7.5L31.817,7.5C31.126,7.5 30.567,8.059 30.567,8.75L30.567,38.75C30.567,39.441 31.126,40 31.817,40L35.567,40C36.257,40 36.817,39.441 36.817,38.75L36.817,8.75C36.817,8.059 36.257,7.5 35.567,7.5ZM45.567,0L41.817,0C41.126,0 40.567,0.559 40.567,1.25L40.567,38.75C40.567,39.441 41.126,40 41.817,40L45.567,40C46.257,40 46.817,39.441 46.817,38.75L46.817,1.25C46.817,0.559 46.257,0 45.567,0Z" fill="#000000"/>
</svg>
