<svg width="48" height="42" viewBox="0 0 48 42" fill="none" xmlns="http://www.w3.org/2000/svg" xmlns:xlink="http://www.w3.org/1999/xlink">
<path d="M14.655,23.024L10.887,23.024C10.193,23.024 9.632,23.587 9.632,24.282L9.632,39.379C9.632,40.075 10.193,40.638 10.887,40.638L14.655,40.638C15.349,40.638 15.911,40.075 15.911,39.379L15.911,24.282C15.911,23.587 15.349,23.024 14.655,23.024ZM4.608,30.573L0.841,30.573C0.147,30.573 -0.415,31.136 -0.415,31.831L-0.415,39.379C-0.415,40.075 0.147,40.638 0.841,40.638L4.608,40.638C5.302,40.638 5.864,40.075 5.864,39.379L5.864,31.831C5.864,31.136 5.302,30.573 4.608,30.573ZM24.702,15.476L20.934,15.476C20.24,15.476 19.678,16.039 19.678,16.734L19.678,39.379C19.678,40.075 20.24,40.638 20.934,40.638L24.702,40.638C25.395,40.638 25.957,40.075 25.957,39.379L25.957,16.734C25.957,16.039 25.395,15.476 24.702,15.476ZM34.748,7.927L30.981,7.927C30.287,7.927 29.725,8.49 29.725,9.185L29.725,39.379C29.725,40.075 30.287,40.638 30.981,40.638L34.748,40.638C35.442,40.638 36.004,40.075 36.004,39.379L36.004,9.185C36.004,8.49 35.442,7.927 34.748,7.927ZM44.795,0.378L41.028,0.378C40.334,0.378 39.772,0.941 39.772,1.637L39.772,39.379C39.772,40.075 40.334,40.638 41.028,40.638L44.795,40.638C45.489,40.638 46.051,40.075 46.051,39.379L46.051,1.637C46.051,0.941 45.489,0.378 44.795,0.378Z" fill="#000000"/>
</svg>
