<svg width="50" height="36" viewBox="0 0 50 36" fill="none" xmlns="http://www.w3.org/2000/svg" xmlns:xlink="http://www.w3.org/1999/xlink">
<path d="M49.082,10.066C35.176,-2.819 13.548,-2.814 -0.352,10.066C-0.875,10.551 -0.885,11.371 -0.38,11.873L2.308,14.545C2.79,15.024 3.565,15.034 4.066,14.574C15.519,4.063 33.209,4.061 44.665,14.574C45.166,15.034 45.941,15.023 46.423,14.545L49.111,11.873C49.615,11.371 49.605,10.551 49.082,10.066ZM24.365,25.566C21.591,25.566 19.342,27.819 19.342,30.599C19.342,33.378 21.591,35.631 24.365,35.631C27.14,35.631 29.389,33.378 29.389,30.599C29.389,27.819 27.14,25.566 24.365,25.566ZM40.273,18.993C31.226,10.979 17.494,10.987 8.458,18.993C7.916,19.473 7.899,20.306 8.413,20.814L11.116,23.486C11.587,23.952 12.345,23.983 12.847,23.549C19.436,17.843 29.309,17.856 35.883,23.549C36.384,23.983 37.143,23.953 37.613,23.486L40.317,20.814C40.832,20.306 40.814,19.472 40.273,18.993Z" fill="#000000"/>
</svg>
