<svg width="106" height="104" viewBox="0 0 106 104" fill="none" xmlns="http://www.w3.org/2000/svg" xmlns:xlink="http://www.w3.org/1999/xlink">
<path d="M52.338,-0.577C22.932,-0.577 -0.909,21.023 -0.909,47.671C-0.909,59.167 3.544,69.707 10.947,77.998C8.338,89.668 -0.348,100.094 -0.452,100.21C-0.675,100.474 -0.825,100.804 -0.881,101.161C-0.938,101.518 -0.9,101.886 -0.772,102.219C-0.644,102.552 -0.431,102.836 -0.159,103.035C0.112,103.235 0.43,103.341 0.755,103.342C14.537,103.342 24.883,95.977 29.999,91.424C37.142,94.409 44.71,95.932 52.338,95.919C81.747,95.919 105.586,74.319 105.586,47.671C105.586,21.023 81.747,-0.577 52.338,-0.577ZM72.306,53.238C72.306,53.73 72.131,54.202 71.819,54.55C71.507,54.898 71.084,55.094 70.642,55.094L58.994,55.094L58.994,68.084C58.994,68.576 58.819,69.048 58.507,69.396C58.195,69.744 57.772,69.939 57.33,69.939L47.346,69.939C46.905,69.939 46.482,69.744 46.17,69.396C45.858,69.048 45.683,68.576 45.683,68.084L45.683,55.094L34.035,55.094C33.593,55.094 33.17,54.898 32.858,54.55C32.546,54.202 32.371,53.73 32.371,53.238L32.371,42.104C32.371,41.612 32.546,41.14 32.858,40.792C33.17,40.444 33.593,40.248 34.035,40.248L45.683,40.248L45.683,27.258C45.683,26.766 45.858,26.294 46.17,25.946C46.482,25.598 46.905,25.403 47.346,25.403L57.33,25.403C57.772,25.403 58.195,25.598 58.507,25.946C58.819,26.294 58.994,26.766 58.994,27.258L58.994,40.248L70.642,40.248C71.084,40.248 71.507,40.444 71.819,40.792C72.131,41.14 72.306,41.612 72.306,42.104L72.306,53.238Z" fill="#291D78"/>
</svg>
