<svg width="60" height="60" viewBox="0 0 60 60" fill="none" xmlns="http://www.w3.org/2000/svg" xmlns:xlink="http://www.w3.org/1999/xlink">
<path d="M29.205,15.566L10.001,35.905L10.001,57.857C10.001,58.425 10.176,58.97 10.489,59.372C10.801,59.774 11.225,60 11.667,60L23.339,59.961C23.78,59.958 24.202,59.731 24.512,59.33C24.823,58.928 24.998,58.385 24.998,57.818L24.998,44.998C24.998,44.43 25.173,43.885 25.486,43.483C25.798,43.081 26.222,42.855 26.664,42.855L33.33,42.855C33.772,42.855 34.196,43.081 34.509,43.483C34.821,43.885 34.997,44.43 34.997,44.998L34.997,57.809C34.996,58.091 35.039,58.37 35.122,58.631C35.206,58.892 35.328,59.129 35.483,59.328C35.638,59.528 35.822,59.687 36.024,59.795C36.227,59.903 36.444,59.958 36.663,59.958L48.331,60C48.773,60 49.197,59.774 49.51,59.372C49.822,58.97 49.998,58.425 49.998,57.857L49.998,35.89L30.798,15.566C30.572,15.332 30.291,15.204 30.001,15.204C29.711,15.204 29.43,15.332 29.205,15.566ZM59.539,29.39L50.831,20.16L50.831,1.607C50.831,1.181 50.699,0.772 50.465,0.471C50.23,0.169 49.913,0 49.581,0L43.748,0C43.417,0 43.099,0.169 42.864,0.471C42.63,0.772 42.498,1.181 42.498,1.607L42.498,11.333L33.173,1.467C32.278,0.52 31.155,0.002 29.996,0.002C28.837,0.002 27.714,0.52 26.819,1.467L0.454,29.39C0.327,29.524 0.222,29.69 0.145,29.876C0.069,30.063 0.021,30.267 0.006,30.477C-0.01,30.688 0.007,30.9 0.055,31.101C0.104,31.303 0.182,31.491 0.287,31.654L2.943,35.806C3.047,35.969 3.176,36.104 3.321,36.204C3.466,36.303 3.625,36.364 3.788,36.385C3.952,36.405 4.117,36.384 4.274,36.322C4.431,36.26 4.578,36.159 4.704,36.024L29.205,10.074C29.43,9.84 29.711,9.712 30.001,9.712C30.291,9.712 30.572,9.84 30.798,10.074L55.299,36.024C55.426,36.159 55.572,36.26 55.729,36.322C55.886,36.384 56.051,36.406 56.214,36.386C56.378,36.366 56.536,36.305 56.681,36.206C56.827,36.107 56.955,35.973 57.06,35.81L59.716,31.658C59.82,31.494 59.899,31.305 59.946,31.103C59.994,30.9 60.01,30.687 59.994,30.476C59.977,30.266 59.929,30.061 59.851,29.875C59.772,29.688 59.666,29.523 59.539,29.39Z" fill="#000000"/>
</svg>
