<svg width="48" height="42" viewBox="0 0 48 42" fill="none" xmlns="http://www.w3.org/2000/svg" xmlns:xlink="http://www.w3.org/1999/xlink">
<path d="M14.658,22.801L10.89,22.801C10.197,22.801 9.635,23.364 9.635,24.059L9.635,39.157C9.635,39.852 10.197,40.415 10.89,40.415L14.658,40.415C15.352,40.415 15.914,39.852 15.914,39.157L15.914,24.059C15.914,23.364 15.352,22.801 14.658,22.801ZM4.611,30.35L0.844,30.35C0.15,30.35 -0.412,30.913 -0.412,31.608L-0.412,39.157C-0.412,39.852 0.15,40.415 0.844,40.415L4.611,40.415C5.305,40.415 5.867,39.852 5.867,39.157L5.867,31.608C5.867,30.913 5.305,30.35 4.611,30.35ZM24.705,15.253L20.937,15.253C20.243,15.253 19.681,15.816 19.681,16.511L19.681,39.157C19.681,39.852 20.243,40.415 20.937,40.415L24.705,40.415C25.398,40.415 25.96,39.852 25.96,39.157L25.96,16.511C25.96,15.816 25.398,15.253 24.705,15.253ZM34.751,7.704L30.984,7.704C30.29,7.704 29.728,8.267 29.728,8.962L29.728,39.157C29.728,39.852 30.29,40.415 30.984,40.415L34.751,40.415C35.445,40.415 36.007,39.852 36.007,39.157L36.007,8.962C36.007,8.267 35.445,7.704 34.751,7.704ZM44.798,0.156L41.031,0.156C40.337,0.156 39.775,0.719 39.775,1.414L39.775,39.157C39.775,39.852 40.337,40.415 41.031,40.415L44.798,40.415C45.492,40.415 46.054,39.852 46.054,39.157L46.054,1.414C46.054,0.719 45.492,0.156 44.798,0.156Z" fill="#000000"/>
</svg>
