<svg width="52" height="36" viewBox="0 0 52 36" fill="none" xmlns="http://www.w3.org/2000/svg" xmlns:xlink="http://www.w3.org/1999/xlink">
<path d="M50.169,9.6C36.327,-3.202 14.8,-3.198 0.964,9.6C0.444,10.081 0.434,10.896 0.937,11.395L3.612,14.049C4.092,14.526 4.863,14.536 5.362,14.079C16.762,3.635 34.37,3.633 45.772,14.079C46.27,14.536 47.042,14.525 47.522,14.049L50.197,11.395C50.699,10.896 50.689,10.081 50.169,9.6ZM25.567,25C22.805,25 20.567,27.238 20.567,30C20.567,32.762 22.805,35 25.567,35C28.328,35 30.567,32.762 30.567,30C30.567,27.238 28.328,25 25.567,25ZM41.4,18.47C32.395,10.506 18.728,10.515 9.733,18.47C9.194,18.946 9.177,19.773 9.688,20.278L12.379,22.934C12.848,23.396 13.603,23.427 14.102,22.996C20.66,17.327 30.488,17.339 37.031,22.996C37.53,23.427 38.285,23.397 38.753,22.934L41.444,20.278C41.956,19.773 41.938,18.945 41.4,18.47Z" fill="#000000"/>
</svg>
