<svg width="50" height="36" viewBox="0 0 50 36" fill="none" xmlns="http://www.w3.org/2000/svg" xmlns:xlink="http://www.w3.org/1999/xlink">
<path d="M49.118,9.844C35.212,-3.042 13.584,-3.037 -0.316,9.844C-0.839,10.328 -0.849,11.148 -0.344,11.651L2.344,14.322C2.826,14.801 3.601,14.812 4.102,14.352C15.555,3.84 33.245,3.838 44.701,14.352C45.202,14.812 45.977,14.801 46.459,14.322L49.147,11.651C49.651,11.148 49.641,10.328 49.118,9.844ZM24.401,25.343C21.626,25.343 19.378,27.596 19.378,30.376C19.378,33.155 21.626,35.408 24.401,35.408C27.176,35.408 29.424,33.155 29.424,30.376C29.424,27.596 27.176,25.343 24.401,25.343ZM40.309,18.771C31.262,10.756 17.53,10.764 8.493,18.771C7.952,19.25 7.934,20.083 8.449,20.591L11.152,23.264C11.623,23.729 12.381,23.761 12.883,23.327C19.472,17.62 29.345,17.633 35.919,23.327C36.42,23.761 37.178,23.73 37.649,23.264L40.352,20.591C40.867,20.083 40.849,19.249 40.309,18.771Z" fill="#000000"/>
</svg>
