<svg width="62" height="60" viewBox="0 0 62 60" fill="none" xmlns="http://www.w3.org/2000/svg" xmlns:xlink="http://www.w3.org/1999/xlink">
<path d="M29.692,15.044L10.444,35.516L10.444,57.61C10.444,58.182 10.62,58.73 10.933,59.135C11.246,59.54 11.671,59.767 12.114,59.767L23.813,59.728C24.255,59.725 24.678,59.496 24.989,59.092C25.301,58.688 25.475,58.141 25.475,57.571L25.475,44.668C25.475,44.096 25.651,43.547 25.965,43.143C26.278,42.738 26.703,42.511 27.146,42.511L33.828,42.511C34.271,42.511 34.695,42.738 35.009,43.143C35.322,43.547 35.498,44.096 35.498,44.668L35.498,57.561C35.497,57.845 35.54,58.126 35.624,58.389C35.707,58.651 35.83,58.89 35.985,59.091C36.141,59.292 36.325,59.451 36.528,59.56C36.731,59.669 36.949,59.725 37.168,59.725L48.863,59.767C49.306,59.767 49.731,59.54 50.045,59.135C50.358,58.73 50.534,58.182 50.534,57.61L50.534,35.501L31.29,15.044C31.063,14.809 30.781,14.68 30.491,14.68C30.2,14.68 29.918,14.809 29.692,15.044ZM60.097,28.958L51.369,19.668L51.369,0.996C51.369,0.567 51.237,0.155 51.002,-0.148C50.767,-0.452 50.449,-0.622 50.116,-0.622L44.27,-0.622C43.937,-0.622 43.619,-0.452 43.384,-0.148C43.149,0.155 43.017,0.567 43.017,0.996L43.017,10.784L33.67,0.854C32.773,-0.099 31.647,-0.62 30.486,-0.62C29.324,-0.62 28.198,-0.099 27.301,0.854L0.874,28.958C0.747,29.094 0.643,29.26 0.565,29.448C0.488,29.636 0.441,29.841 0.425,30.053C0.41,30.264 0.427,30.478 0.475,30.681C0.523,30.884 0.602,31.073 0.707,31.237L3.37,35.416C3.474,35.58 3.603,35.716 3.748,35.816C3.894,35.916 4.053,35.978 4.217,35.998C4.381,36.019 4.546,35.997 4.704,35.935C4.861,35.873 5.008,35.771 5.135,35.636L29.692,9.517C29.918,9.282 30.2,9.153 30.491,9.153C30.781,9.153 31.063,9.282 31.29,9.517L55.848,35.636C55.975,35.771 56.121,35.873 56.278,35.935C56.436,35.998 56.601,36.02 56.765,36C56.929,35.98 57.088,35.918 57.233,35.819C57.379,35.719 57.507,35.584 57.612,35.42L60.275,31.241C60.379,31.076 60.458,30.886 60.506,30.682C60.554,30.478 60.57,30.264 60.553,30.052C60.537,29.84 60.488,29.634 60.41,29.446C60.331,29.259 60.225,29.093 60.097,28.958Z" fill="#000000"/>
</svg>
