<svg width="50" height="54" viewBox="0 0 50 54" fill="none" xmlns="http://www.w3.org/2000/svg" xmlns:xlink="http://www.w3.org/1999/xlink">
<path d="M24.219,0C37.598,0 48.438,11.735 48.438,26.219C48.438,40.702 37.598,52.438 24.219,52.438C10.84,52.438 0,40.702 0,26.219C0,11.735 10.84,0 24.219,0ZM12.891,30.87L24.219,30.87L24.219,38.366C24.219,39.497 25.488,40.068 26.221,39.265L37.383,27.117C37.842,26.62 37.842,25.828 37.383,25.331L26.221,13.173C25.479,12.369 24.219,12.94 24.219,14.071L24.219,21.567L12.891,21.567C12.246,21.567 11.719,22.138 11.719,22.836L11.719,29.602C11.719,30.3 12.246,30.87 12.891,30.87Z" fill="#0C0150"/>
</svg>
