<svg width="50" height="50" viewBox="0 0 50 50" fill="none" xmlns="http://www.w3.org/2000/svg" xmlns:xlink="http://www.w3.org/1999/xlink">
<path d="M23.97,-0.35C10.263,-0.35 -0.359,9.709 -0.359,23.295C-0.359,30.402 2.549,36.543 7.283,40.785C8.1,41.523 7.932,41.951 8.071,46.508C8.082,46.828 8.17,47.139 8.329,47.416C8.487,47.693 8.711,47.927 8.98,48.097C9.249,48.268 9.556,48.369 9.873,48.393C10.19,48.417 10.508,48.363 10.8,48.235C15.979,45.945 16.045,45.764 16.923,46.004C31.928,50.151 48.192,40.509 48.192,23.295C48.192,9.709 37.678,-0.35 23.97,-0.35ZM38.578,17.846L31.433,29.206C31.163,29.633 30.808,29.999 30.391,30.282C29.973,30.565 29.502,30.759 29.007,30.85C28.511,30.942 28.002,30.93 27.512,30.815C27.021,30.7 26.56,30.484 26.156,30.182L20.471,25.909C20.217,25.717 19.908,25.614 19.59,25.614C19.272,25.614 18.963,25.717 18.709,25.909L11.038,31.751C10.014,32.531 8.673,31.299 9.363,30.211L16.508,18.852C16.778,18.425 17.133,18.058 17.55,17.775C17.968,17.492 18.439,17.298 18.935,17.207C19.43,17.115 19.939,17.127 20.43,17.242C20.92,17.357 21.382,17.573 21.785,17.876L27.469,22.147C27.723,22.339 28.032,22.442 28.35,22.442C28.667,22.442 28.976,22.339 29.231,22.147L36.906,16.311C37.928,15.527 39.269,16.757 38.578,17.846Z" fill="#000000"/>
</svg>
