<svg width="36" height="44" viewBox="0 0 36 44" fill="none" xmlns="http://www.w3.org/2000/svg" xmlns:xlink="http://www.w3.org/1999/xlink">
<g opacity="0.6">
<path d="M32.335,14.739L23.028,12.908L18.869,1.531C18.495,0.514 17.766,0 17.037,0C16.312,0 15.588,0.507 15.213,1.531L11.053,12.907L1.746,14.737C0.077,15.063 -0.592,17.838 0.618,19.428L7.35,28.279L5.757,40.782C5.531,42.567 6.585,44 7.767,44C8.08,44 8.403,43.899 8.712,43.678L17.038,37.776L25.364,43.679C25.673,43.899 25.994,43.998 26.306,43.998C27.489,43.998 28.546,42.571 28.319,40.784L26.728,28.281L33.462,19.431C34.672,17.841 34.004,15.066 32.335,14.739ZM24.594,25.327L23.442,26.841L23.714,28.979L24.955,38.729L18.462,34.123L17.039,33.114L17.041,5.856L20.285,14.732L20.996,16.677L22.586,16.99L29.849,18.419L24.594,25.327Z" fill="#E7B431"/>
</g>
</svg>
