<svg width="52" height="36" viewBox="0 0 52 36" fill="none" xmlns="http://www.w3.org/2000/svg" xmlns:xlink="http://www.w3.org/1999/xlink">
<path d="M49.995,9.844C36.089,-3.042 14.461,-3.037 0.56,9.844C0.037,10.328 0.027,11.148 0.533,11.651L3.22,14.322C3.702,14.801 4.477,14.812 4.978,14.352C16.432,3.84 34.122,3.838 45.577,14.352C46.078,14.812 46.853,14.801 47.335,14.322L50.023,11.651C50.528,11.148 50.517,10.328 49.995,9.844ZM25.277,25.343C22.503,25.343 20.254,27.596 20.254,30.376C20.254,33.155 22.503,35.408 25.277,35.408C28.052,35.408 30.301,33.155 30.301,30.376C30.301,27.596 28.052,25.343 25.277,25.343ZM41.185,18.771C32.138,10.756 18.406,10.764 9.37,18.771C8.828,19.25 8.811,20.083 9.325,20.591L12.028,23.264C12.499,23.729 13.257,23.761 13.759,23.326C20.348,17.62 30.221,17.633 36.795,23.326C37.297,23.761 38.055,23.73 38.526,23.264L41.229,20.591C41.744,20.083 41.726,19.249 41.185,18.771Z" fill="#000000"/>
</svg>
