<svg width="64" height="38" viewBox="0 0 64 38" fill="none" xmlns="http://www.w3.org/2000/svg" xmlns:xlink="http://www.w3.org/1999/xlink">
<path d="M53.215,7.428L53.215,14.675L56.33,14.675L56.33,21.921L53.215,21.921L53.215,29.168L6.498,29.168L6.498,7.428L53.215,7.428ZM54.773,0.181L4.941,0.181C2.361,0.181 0.269,2.615 0.269,5.616L0.269,30.98C0.269,33.981 2.361,36.415 4.941,36.415L54.773,36.415C57.353,36.415 59.444,33.981 59.444,30.98L59.444,29.168L60.223,29.168C61.513,29.168 62.559,27.951 62.559,26.451L62.559,10.146C62.559,8.645 61.513,7.428 60.223,7.428L59.444,7.428L59.444,5.616C59.444,2.615 57.353,0.181 54.773,0.181ZM31.414,11.051L9.613,11.051L9.613,25.545L31.414,25.545L31.414,11.051Z" fill="#000000"/>
</svg>
