<svg width="60" height="60" viewBox="0 0 60 60" fill="none" xmlns="http://www.w3.org/2000/svg" xmlns:xlink="http://www.w3.org/1999/xlink">
<path d="M29.226,59.767C33.967,59.767 37.813,56.388 37.813,52.218L20.639,52.218C20.639,56.388 24.485,59.767 29.226,59.767ZM58.14,42.109C55.547,39.66 50.694,35.977 50.694,23.911C50.694,14.746 43.38,7.41 33.519,5.61L33.519,3.152C33.519,1.068 31.597,-0.622 29.226,-0.622C26.855,-0.622 24.933,1.068 24.933,3.152L24.933,5.61C15.072,7.41 7.758,14.746 7.758,23.911C7.758,35.977 2.906,39.66 0.312,42.109C-0.493,42.87 -0.85,43.779 -0.844,44.67C-0.829,46.604 0.899,48.444 3.465,48.444L54.987,48.444C57.554,48.444 59.283,46.604 59.296,44.67C59.303,43.779 58.946,42.869 58.14,42.109Z" fill="#FFFFFF"/>
</svg>
