<svg width="50" height="50" viewBox="0 0 50 50" fill="none" xmlns="http://www.w3.org/2000/svg" xmlns:xlink="http://www.w3.org/1999/xlink">
<path d="M48.09,34.571L37.127,29.853C36.659,29.653 36.138,29.61 35.644,29.733C35.149,29.855 34.708,30.135 34.386,30.531L29.531,36.488C21.912,32.88 15.78,26.723 12.187,19.072L18.119,14.197C18.514,13.874 18.794,13.431 18.915,12.934C19.037,12.438 18.995,11.915 18.794,11.444L14.096,0.436C13.876,-0.071 13.486,-0.484 12.995,-0.734C12.503,-0.983 11.941,-1.053 11.404,-0.93L1.224,1.429C0.706,1.549 0.244,1.842 -0.086,2.259C-0.417,2.677 -0.597,3.194 -0.597,3.728C-0.597,28.939 19.753,49.334 44.822,49.334C45.353,49.334 45.869,49.154 46.285,48.822C46.701,48.49 46.992,48.026 47.112,47.506L49.461,37.284C49.582,36.742 49.512,36.175 49.262,35.68C49.011,35.184 48.597,34.792 48.09,34.571Z" fill="#000000"/>
</svg>
