<svg width="62" height="38" viewBox="0 0 62 38" fill="none" xmlns="http://www.w3.org/2000/svg" xmlns:xlink="http://www.w3.org/1999/xlink">
<path d="M52.485,7.651L52.485,14.898L55.6,14.898L55.6,22.144L52.485,22.144L52.485,29.391L5.768,29.391L5.768,7.651L52.485,7.651ZM54.042,0.404L4.211,0.404C1.631,0.404 -0.461,2.838 -0.461,5.839L-0.461,31.202C-0.461,34.204 1.631,36.637 4.211,36.637L54.042,36.637C56.623,36.637 58.714,34.204 58.714,31.202L58.714,29.391L59.493,29.391C60.783,29.391 61.829,28.174 61.829,26.673L61.829,10.368C61.829,8.868 60.783,7.651 59.493,7.651L58.714,7.651L58.714,5.839C58.714,2.838 56.623,0.404 54.042,0.404ZM30.684,11.274L8.882,11.274L8.882,25.767L30.684,25.767L30.684,11.274Z" fill="#000000"/>
</svg>
