<svg width="52" height="36" viewBox="0 0 52 36" fill="none" xmlns="http://www.w3.org/2000/svg" xmlns:xlink="http://www.w3.org/1999/xlink">
<path d="M49.627,9.6C35.754,-3.202 14.176,-3.198 0.308,9.6C-0.214,10.081 -0.224,10.896 0.28,11.395L2.962,14.049C3.442,14.526 4.216,14.536 4.716,14.079C16.142,3.635 33.791,3.633 45.22,14.079C45.72,14.536 46.494,14.525 46.974,14.049L49.656,11.395C50.159,10.896 50.149,10.081 49.627,9.6ZM24.968,25C22.199,25 19.956,27.238 19.956,30C19.956,32.762 22.199,35 24.968,35C27.736,35 29.979,32.762 29.979,30C29.979,27.238 27.736,25 24.968,25ZM40.838,18.47C31.812,10.506 18.112,10.515 9.097,18.47C8.557,18.946 8.539,19.773 9.052,20.278L11.749,22.934C12.219,23.396 12.975,23.427 13.476,22.996C20.05,17.327 29.9,17.339 36.458,22.996C36.959,23.427 37.715,23.397 38.185,22.934L40.882,20.278C41.396,19.773 41.378,18.945 40.838,18.47Z" fill="#000000"/>
</svg>
