<svg width="108" height="104" viewBox="0 0 108 104" fill="none" xmlns="http://www.w3.org/2000/svg" xmlns:xlink="http://www.w3.org/1999/xlink">
<path d="M53.979,-0.224C24.572,-0.224 0.731,21.376 0.731,48.024C0.731,59.52 5.184,70.06 12.587,78.351C9.979,90.021 1.293,100.447 1.189,100.563C0.965,100.827 0.816,101.157 0.759,101.514C0.702,101.871 0.74,102.239 0.868,102.572C0.996,102.905 1.209,103.189 1.481,103.388C1.752,103.588 2.07,103.694 2.395,103.695C16.177,103.695 26.523,96.33 31.64,91.777C38.783,94.762 46.35,96.285 53.979,96.272C83.388,96.272 107.226,74.672 107.226,48.024C107.226,21.376 83.388,-0.224 53.979,-0.224ZM73.947,53.591C73.947,54.083 73.771,54.555 73.459,54.903C73.147,55.251 72.724,55.447 72.283,55.447L60.635,55.447L60.635,68.437C60.635,68.929 60.459,69.401 60.147,69.749C59.835,70.097 59.412,70.292 58.971,70.292L48.987,70.292C48.545,70.292 48.122,70.097 47.81,69.749C47.498,69.401 47.323,68.929 47.323,68.437L47.323,55.447L35.675,55.447C35.233,55.447 34.81,55.251 34.498,54.903C34.186,54.555 34.011,54.083 34.011,53.591L34.011,42.457C34.011,41.965 34.186,41.493 34.498,41.145C34.81,40.797 35.233,40.601 35.675,40.601L47.323,40.601L47.323,27.611C47.323,27.119 47.498,26.647 47.81,26.299C48.122,25.951 48.545,25.756 48.987,25.756L58.971,25.756C59.412,25.756 59.835,25.951 60.147,26.299C60.459,26.647 60.635,27.119 60.635,27.611L60.635,40.601L72.283,40.601C72.724,40.601 73.147,40.797 73.459,41.145C73.771,41.493 73.947,41.965 73.947,42.457L73.947,53.591Z" fill="#291D78"/>
</svg>
