<svg width="48" height="40" viewBox="0 0 48 40" fill="none" xmlns="http://www.w3.org/2000/svg" xmlns:xlink="http://www.w3.org/1999/xlink">
<path d="M15.112,22.5L11.353,22.5C10.661,22.5 10.101,23.059 10.101,23.75L10.101,38.75C10.101,39.441 10.661,40 11.353,40L15.112,40C15.804,40 16.365,39.441 16.365,38.75L16.365,23.75C16.365,23.059 15.804,22.5 15.112,22.5ZM5.089,30L1.33,30C0.638,30 0.077,30.559 0.077,31.25L0.077,38.75C0.077,39.441 0.638,40 1.33,40L5.089,40C5.781,40 6.342,39.441 6.342,38.75L6.342,31.25C6.342,30.559 5.781,30 5.089,30ZM25.136,15L21.377,15C20.685,15 20.124,15.559 20.124,16.25L20.124,38.75C20.124,39.441 20.685,40 21.377,40L25.136,40C25.828,40 26.389,39.441 26.389,38.75L26.389,16.25C26.389,15.559 25.828,15 25.136,15ZM35.159,7.5L31.4,7.5C30.708,7.5 30.147,8.059 30.147,8.75L30.147,38.75C30.147,39.441 30.708,40 31.4,40L35.159,40C35.851,40 36.412,39.441 36.412,38.75L36.412,8.75C36.412,8.059 35.851,7.5 35.159,7.5ZM45.182,0L41.424,0C40.731,0 40.171,0.559 40.171,1.25L40.171,38.75C40.171,39.441 40.731,40 41.424,40L45.182,40C45.875,40 46.435,39.441 46.435,38.75L46.435,1.25C46.435,0.559 45.875,0 45.182,0Z" fill="#000000"/>
</svg>
