<svg width="64" height="36" viewBox="0 0 64 36" fill="none" xmlns="http://www.w3.org/2000/svg" xmlns:xlink="http://www.w3.org/1999/xlink">
<path d="M52.687,7.2L52.687,14.4L55.794,14.4L55.794,21.6L52.687,21.6L52.687,28.8L6.078,28.8L6.078,7.2L52.687,7.2ZM54.241,0L4.525,0C1.951,0 -0.136,2.418 -0.136,5.4L-0.136,30.6C-0.136,33.582 1.951,36 4.525,36L54.241,36C56.815,36 58.902,33.582 58.902,30.6L58.902,28.8L59.678,28.8C60.966,28.8 62.009,27.591 62.009,26.1L62.009,9.9C62.009,8.409 60.966,7.2 59.678,7.2L58.902,7.2L58.902,5.4C58.902,2.418 56.815,0 54.241,0ZM30.936,10.8L9.186,10.8L9.186,25.2L30.936,25.2L30.936,10.8Z" fill="#000000"/>
</svg>
