<svg width="50" height="50" viewBox="0 0 50 50" fill="none" xmlns="http://www.w3.org/2000/svg" xmlns:xlink="http://www.w3.org/1999/xlink">
<path d="M48.15,35.197L37.187,30.479C36.719,30.279 36.198,30.237 35.704,30.359C35.21,30.481 34.768,30.762 34.447,31.158L29.591,37.114C21.972,33.507 15.84,27.349 12.248,19.698L18.179,14.823C18.574,14.5 18.854,14.057 18.976,13.56C19.098,13.064 19.055,12.541 18.855,12.071L14.156,1.062C13.936,0.556 13.547,0.142 13.055,-0.108C12.564,-0.357 12.001,-0.426 11.464,-0.304L1.285,2.055C0.767,2.175 0.305,2.468 -0.026,2.885C-0.356,3.303 -0.536,3.821 -0.536,4.354C-0.536,29.565 19.814,49.96 44.882,49.96C45.413,49.961 45.929,49.78 46.345,49.448C46.761,49.116 47.053,48.652 47.172,48.132L49.522,37.91C49.643,37.368 49.572,36.801 49.322,36.306C49.072,35.811 48.657,35.419 48.15,35.197Z" fill="#000000"/>
</svg>
