<svg width="52" height="52" viewBox="0 0 52 52" fill="none" xmlns="http://www.w3.org/2000/svg" xmlns:xlink="http://www.w3.org/1999/xlink">
<path d="M49.661,43.232L39.902,33.496C39.461,33.057 38.864,32.812 38.238,32.812L36.642,32.812C39.344,29.365 40.949,25.029 40.949,20.312C40.949,9.092 31.836,0 20.589,0C9.342,0 0.229,9.092 0.229,20.312C0.229,31.533 9.342,40.625 20.589,40.625C25.317,40.625 29.663,39.023 33.118,36.328L33.118,37.92C33.118,38.545 33.363,39.141 33.803,39.58L43.562,49.316C44.483,50.234 45.97,50.234 46.881,49.316L49.651,46.553C50.571,45.635 50.571,44.15 49.661,43.232ZM20.589,32.812C13.669,32.812 8.06,27.227 8.06,20.312C8.06,13.408 13.659,7.813 20.589,7.813C27.509,7.813 33.118,13.398 33.118,20.312C33.118,27.217 27.519,32.812 20.589,32.812Z" fill="#000000"/>
</svg>
