<svg width="36" height="40" viewBox="0 0 36 40" fill="none" xmlns="http://www.w3.org/2000/svg" xmlns:xlink="http://www.w3.org/1999/xlink">
<g opacity="0.6">
<path d="M32.335,13.399L23.028,11.734L18.869,1.391C18.495,0.467 17.766,0 17.037,0C16.312,0 15.588,0.461 15.213,1.391L11.053,11.734L1.746,13.397C0.077,13.694 -0.592,16.216 0.618,17.662L7.35,25.709L5.757,37.074C5.531,38.698 6.585,40 7.767,40C8.08,40 8.403,39.909 8.712,39.707L17.038,34.341L25.364,39.709C25.673,39.908 25.994,39.998 26.306,39.998C27.489,39.998 28.546,38.701 28.319,37.077L26.728,25.71L33.462,17.665C34.672,16.22 34.004,13.696 32.335,13.399ZM24.594,23.024L23.442,24.401L23.714,26.345L24.955,35.208L18.462,31.021L17.039,30.104L17.041,5.323L20.285,13.393L20.996,15.161L22.586,15.445L29.849,16.745L24.594,23.024Z" fill="#E7B431"/>
</g>
</svg>
