<svg width="60" height="60" viewBox="0 0 60 60" fill="none" xmlns="http://www.w3.org/2000/svg" xmlns:xlink="http://www.w3.org/1999/xlink">
<path d="M59.813,25.533C59.572,24.461 58.902,23.47 58.138,23.054C57.897,22.92 56.397,22.76 54.79,22.693C52.098,22.572 51.803,22.518 50.946,22.023C49.593,21.232 49.232,20.375 49.218,18.071C49.205,13.65 47.37,9.537 43.74,5.84C41.155,3.201 38.262,1.419 34.967,0.414C34.177,0.173 32.409,0.093 26.489,0.026C17.194,-0.081 15.131,0.106 11.97,1.365C6.144,3.67 1.965,8.573 0.438,14.842C0.157,16.021 0.09,17.91 0.023,28.761C-0.057,42.359 0.037,44.355 0.88,47.048C2.97,53.692 8.903,58.609 14.863,59.68C16.846,60.042 41.289,60.123 43.794,59.788C48.147,59.198 51.562,57.443 54.763,54.175C57.08,51.803 58.527,49.245 59.478,45.855C60.134,43.497 60.08,26.725 59.813,25.533ZM16.671,17.013C17.716,15.954 18.011,15.914 24.547,15.914C30.427,15.914 30.628,15.927 31.485,16.369C32.731,16.999 33.28,17.883 33.28,19.303C33.28,20.576 32.771,21.474 31.632,22.197C31.016,22.585 30.655,22.612 24.895,22.639C21.346,22.666 18.506,22.585 18.091,22.478C15.868,21.849 15.037,18.66 16.671,17.013ZM42.361,43.779L40.365,44.1L29.985,44.221C20.864,44.328 18.292,44.167 17.81,43.953C16.859,43.538 15.962,42.386 15.814,41.354C15.667,40.376 16.163,39.036 16.913,38.353C17.864,37.496 18.279,37.469 29.945,37.456C41.945,37.442 41.878,37.442 43.017,38.501C44.638,40.014 44.289,42.68 42.361,43.779Z" fill="#FFFFFF"/>
</svg>
