<svg width="108" height="104" viewBox="0 0 108 104" fill="none" xmlns="http://www.w3.org/2000/svg" xmlns:xlink="http://www.w3.org/1999/xlink">
<path d="M53.628,0.732C24.29,0.732 0.504,22.193 0.504,48.669C0.504,60.091 4.947,70.564 12.333,78.801C9.731,90.396 1.065,100.755 0.961,100.87C0.738,101.132 0.589,101.46 0.532,101.815C0.475,102.17 0.513,102.535 0.641,102.866C0.769,103.197 0.982,103.479 1.252,103.677C1.523,103.875 1.84,103.981 2.165,103.982C15.914,103.982 26.236,96.664 31.341,92.14C38.468,95.107 46.018,96.62 53.628,96.607C82.969,96.607 106.752,75.146 106.752,48.669C106.752,22.193 82.969,0.732 53.628,0.732ZM73.55,54.201C73.55,54.69 73.375,55.159 73.063,55.504C72.752,55.85 72.33,56.044 71.89,56.044L60.269,56.044L60.269,68.951C60.269,69.44 60.094,69.909 59.782,70.254C59.471,70.6 59.049,70.794 58.609,70.794L48.648,70.794C48.208,70.794 47.785,70.6 47.474,70.254C47.163,69.909 46.988,69.44 46.988,68.951L46.988,56.044L35.367,56.044C34.927,56.044 34.504,55.85 34.193,55.504C33.882,55.159 33.707,54.69 33.707,54.201L33.707,43.138C33.707,42.649 33.882,42.18 34.193,41.834C34.504,41.489 34.927,41.294 35.367,41.294L46.988,41.294L46.988,28.388C46.988,27.899 47.163,27.43 47.474,27.084C47.785,26.739 48.208,26.544 48.648,26.544L58.609,26.544C59.049,26.544 59.471,26.739 59.782,27.084C60.094,27.43 60.269,27.899 60.269,28.388L60.269,41.294L71.89,41.294C72.33,41.294 72.752,41.489 73.063,41.834C73.375,42.18 73.55,42.649 73.55,43.138L73.55,54.201Z" fill="#291D78"/>
</svg>
