<svg width="60" height="60" viewBox="0 0 60 60" fill="none" xmlns="http://www.w3.org/2000/svg" xmlns:xlink="http://www.w3.org/1999/xlink">
<path d="M30,33.75C39.316,33.75 46.875,26.191 46.875,16.875C46.875,7.559 39.316,0 30,0C20.684,0 13.125,7.559 13.125,16.875C13.125,26.191 20.684,33.75 30,33.75ZM45,37.5L38.543,37.5C35.941,38.695 33.047,39.375 30,39.375C26.953,39.375 24.07,38.695 21.457,37.5L15,37.5C6.715,37.5 0,44.215 0,52.5L0,54.375C0,57.48 2.52,60 5.625,60L54.375,60C57.48,60 60,57.48 60,54.375L60,52.5C60,44.215 53.285,37.5 45,37.5Z" fill="#FFFFFF"/>
</svg>
