<svg width="48" height="42" viewBox="0 0 48 42" fill="none" xmlns="http://www.w3.org/2000/svg" xmlns:xlink="http://www.w3.org/1999/xlink">
<path d="M14.84,22.801L11.072,22.801C10.378,22.801 9.816,23.364 9.816,24.059L9.816,39.157C9.816,39.852 10.378,40.415 11.072,40.415L14.84,40.415C15.534,40.415 16.096,39.852 16.096,39.157L16.096,24.059C16.096,23.364 15.534,22.801 14.84,22.801ZM4.793,30.35L1.026,30.35C0.332,30.35 -0.23,30.913 -0.23,31.608L-0.23,39.157C-0.23,39.852 0.332,40.415 1.026,40.415L4.793,40.415C5.487,40.415 6.049,39.852 6.049,39.157L6.049,31.608C6.049,30.913 5.487,30.35 4.793,30.35ZM24.887,15.253L21.119,15.253C20.425,15.253 19.863,15.816 19.863,16.511L19.863,39.157C19.863,39.852 20.425,40.415 21.119,40.415L24.887,40.415C25.58,40.415 26.142,39.852 26.142,39.157L26.142,16.511C26.142,15.816 25.58,15.253 24.887,15.253ZM34.933,7.704L31.166,7.704C30.472,7.704 29.91,8.267 29.91,8.962L29.91,39.157C29.91,39.852 30.472,40.415 31.166,40.415L34.933,40.415C35.627,40.415 36.189,39.852 36.189,39.157L36.189,8.962C36.189,8.267 35.627,7.704 34.933,7.704ZM44.98,0.156L41.213,0.156C40.519,0.156 39.957,0.719 39.957,1.414L39.957,39.157C39.957,39.852 40.519,40.415 41.213,40.415L44.98,40.415C45.674,40.415 46.236,39.852 46.236,39.157L46.236,1.414C46.236,0.719 45.674,0.156 44.98,0.156Z" fill="#000000"/>
</svg>
