<svg width="108" height="104" viewBox="0 0 108 104" fill="none" xmlns="http://www.w3.org/2000/svg" xmlns:xlink="http://www.w3.org/1999/xlink">
<path d="M53.275,0.732C24.005,0.732 0.275,22.193 0.275,48.669C0.275,60.091 4.707,70.564 12.076,78.801C9.48,90.396 0.834,100.755 0.73,100.87C0.508,101.132 0.359,101.46 0.302,101.815C0.246,102.17 0.284,102.535 0.411,102.866C0.539,103.197 0.751,103.479 1.021,103.677C1.291,103.875 1.608,103.981 1.931,103.982C15.649,103.982 25.947,96.664 31.04,92.14C38.15,95.107 45.682,96.62 53.275,96.607C82.547,96.607 106.275,75.146 106.275,48.669C106.275,22.193 82.547,0.732 53.275,0.732ZM73.15,54.201C73.15,54.69 72.976,55.159 72.665,55.504C72.354,55.85 71.933,56.044 71.494,56.044L59.9,56.044L59.9,68.951C59.9,69.44 59.726,69.909 59.415,70.254C59.104,70.6 58.683,70.794 58.244,70.794L48.306,70.794C47.867,70.794 47.446,70.6 47.135,70.254C46.824,69.909 46.65,69.44 46.65,68.951L46.65,56.044L35.056,56.044C34.617,56.044 34.196,55.85 33.885,55.504C33.574,55.159 33.4,54.69 33.4,54.201L33.4,43.138C33.4,42.649 33.574,42.18 33.885,41.834C34.196,41.489 34.617,41.294 35.056,41.294L46.65,41.294L46.65,28.388C46.65,27.899 46.824,27.43 47.135,27.084C47.446,26.739 47.867,26.544 48.306,26.544L58.244,26.544C58.683,26.544 59.104,26.739 59.415,27.084C59.726,27.43 59.9,27.899 59.9,28.388L59.9,41.294L71.494,41.294C71.933,41.294 72.354,41.489 72.665,41.834C72.976,42.18 73.15,42.649 73.15,43.138L73.15,54.201Z" fill="#291D78"/>
</svg>
